<svg width="163" height="132" viewBox="0 0 163 132" fill="none" xmlns="http://www.w3.org/2000/svg">
<path fill-rule="evenodd" clip-rule="evenodd" d="M21.7344 4.96094H141.267C150.655 4.96094 158.267 12.5721 158.267 21.9609V93.4961C158.267 95.7052 156.476 97.4961 154.267 97.4961H8.73438C6.52524 97.4961 4.73438 95.7052 4.73438 93.4961V21.961C4.73438 12.5721 12.3455 4.96094 21.7344 4.96094ZM8.73438 100.496C6.52524 100.496 4.73438 102.287 4.73438 104.496V123.229C4.73438 125.438 6.52524 127.229 8.73438 127.229H154.267C156.476 127.229 158.267 125.438 158.267 123.229V104.496C158.267 102.287 156.476 100.496 154.267 100.496H8.73438ZM0.734375 21.961C0.734375 10.363 10.1364 0.960938 21.7344 0.960938H141.267C152.865 0.960938 162.267 10.363 162.267 21.9609V127.229V127.229C162.267 129.438 160.476 131.229 158.267 131.229V131.229H4.73438V131.229C2.52524 131.229 0.734375 129.438 0.734375 127.229V127.229V98.2211V21.961Z" fill="black"/>
</svg>
