<?xml version="1.0" encoding="UTF-8"?>
<svg version="1.1" xmlns="http://www.w3.org/2000/svg" width="300" height="299">
<path d="M0 0 C11.43141226 -0.06968767 22.8627735 -0.12290638 34.29435539 -0.15543652 C39.60321462 -0.17105389 44.91192788 -0.19222014 50.22070312 -0.22631836 C55.34949289 -0.25905222 60.47814275 -0.27688253 65.60702896 -0.28463173 C67.55812912 -0.29015013 69.50922213 -0.30092593 71.4602623 -0.31719017 C86.63957888 -0.43862919 99.91537546 0.44060895 111.75 11.125 C118.87864816 18.6846827 121.40022929 28.64220754 121.27734375 38.7734375 C120.17294007 51.62185219 115.2157136 64.7842864 106 74 C104.73973302 74.87600945 103.45828845 75.72186312 102.1640625 76.546875 C98.8220254 78.71757968 95.67858088 81.02659017 92.56422424 83.5123291 C67.93321035 102.80551016 43.01594315 100.8298797 13 98 C12.85828369 99.18118408 12.71656738 100.36236816 12.57055664 101.5793457 C11.7864706 107.83322005 10.63759213 114.00142512 9.4375 120.1875 C9.22287109 121.44498047 9.00824219 122.70246094 8.78710938 123.99804688 C6.99704093 133.01557664 6.99704093 133.01557664 4.07080078 135.90478516 C2.08825228 137.12836481 0.1273573 138.06314293 -2 139 C-2.99 139.99 -2.99 139.99 -4 141 C-5.5638561 141.90935336 -7.15132112 142.77836237 -8.75 143.625 C-13.3978238 146.12767435 -18.02581251 148.65925851 -22.625 151.25 C-23.54877441 151.76167725 -23.54877441 151.76167725 -24.49121094 152.28369141 C-27.82455619 154.04664827 -27.82455619 154.04664827 -30 157 C-30.99 157 -31.98 157 -33 157 C-31.14837004 145.43479241 -29.09162633 133.95807206 -26.375 122.5625 C-23.47989724 110.37831754 -20.90809202 98.13865676 -18.375 85.875 C-14.4693851 66.98399409 -10.48297645 48.11152754 -6.4375 29.25 C-6.17193298 28.01038513 -5.90636597 26.77077026 -5.63275146 25.49359131 C-4.87979711 21.97990182 -4.12572557 18.46645456 -3.37109375 14.953125 C-3.14551285 13.90119965 -2.91993195 12.84927429 -2.68751526 11.76547241 C-2.47924606 10.79775909 -2.27097687 9.83004578 -2.05639648 8.83300781 C-1.87560043 7.99183411 -1.69480438 7.1506604 -1.50852966 6.28399658 C-1.03992989 4.17934002 -0.53390963 2.08893247 0 0 Z M27 30 C25.99800929 34.76783118 25.00124471 39.53671395 24.00927734 44.30664062 C23.67118952 45.92868422 23.33168318 47.55043283 22.99072266 49.171875 C22.50048299 51.50444391 22.01537813 53.83803099 21.53125 56.171875 C21.37813354 56.89493835 21.22501709 57.61800171 21.06726074 58.36297607 C20.38382633 61.68104132 20 64.5920757 20 68 C25.47685859 68.07489393 30.95341045 68.12894902 36.43066406 68.16479492 C38.28878989 68.17975905 40.14688117 68.20013773 42.00488281 68.22631836 C61.16489168 68.92371795 61.16489168 68.92371795 78 61 C82.02230696 56.88627697 83.7339059 53.59191563 85 48 C85.495 46.515 85.495 46.515 86 45 C86.26563796 41.4138876 86.22653144 38.66449221 85.0625 35.25 C81.50192739 31.36573898 76.53866606 30.25123279 71.37911987 29.7406311 C68.52774516 29.65535425 65.69211185 29.66204002 62.83984375 29.70703125 C61.80936417 29.71127609 60.77888458 29.71552094 59.71717834 29.71989441 C56.45700885 29.73655784 53.19747961 29.77418699 49.9375 29.8125 C47.7142017 29.82756278 45.49089361 29.84124838 43.26757812 29.85351562 C37.84483719 29.88642076 32.42246436 29.93649543 27 30 Z " fill="#E6514E" transform="translate(103,0)"/>
<path d="M0 0 C0.64995297 1.41478135 1.29478722 2.83191487 1.9375 4.25 C2.47697266 5.43335937 2.47697266 5.43335937 3.02734375 6.640625 C7.73426237 18.05821073 5.24939628 31.93899769 0.78125 43.0234375 C-7.10670834 60.07019191 -21.09918914 72.72466502 -38.58203125 79.359375 C-46.63733415 81.90024769 -54.12503798 83.14317317 -62.57568359 83.20532227 C-63.41536682 83.21522186 -64.25505005 83.22512146 -65.12017822 83.23532104 C-67.87956987 83.26676194 -70.6389787 83.29162422 -73.3984375 83.31640625 C-75.31800774 83.33699083 -77.2375736 83.35798769 -79.15713501 83.37937927 C-84.19749392 83.43444461 -89.23789268 83.48392213 -94.27832031 83.53222656 C-99.42646816 83.58255535 -104.57455849 83.63818191 -109.72265625 83.69335938 C-119.81505497 83.80075078 -129.90750374 83.90223763 -140 84 C-138.64974688 79.94924064 -136.86698635 79.47764922 -133.19140625 77.375 C-132.30223259 76.85939514 -132.30223259 76.85939514 -131.39509583 76.33337402 C-128.78669576 74.82437208 -126.16415079 73.34074703 -123.54205322 71.85571289 C-121.51958275 70.70925911 -119.49921817 69.55924303 -117.48046875 68.40625 C-116.8180719 68.02843384 -116.15567505 67.65061768 -115.47320557 67.26135254 C-111.89636408 65.1925174 -108.55393652 63.03125376 -105.30078125 60.46875 C-92.41366335 50.52739385 -78.34326013 51.83734343 -62.76399231 52.05757141 C-53.26966654 52.12222211 -45.48814171 49.98797071 -38 44 C-34.07206199 39.47274773 -31.57317426 34.78453436 -30 29 C-30.18470829 26.88685117 -30.42212217 24.77776648 -30.70703125 22.67578125 C-30.76025391 19.24072266 -30.76025391 19.24072266 -30 16 C-26.13788811 12.02207808 -21.55964215 9.68636431 -16.6875 7.1875 C-15.40967279 6.48029627 -14.13424447 5.7687396 -12.86132812 5.05273438 C-3.71577906 0 -3.71577906 0 0 0 Z " fill="#D7314A" transform="translate(211,89)"/>
<path d="M0 0 C24.5576324 0 24.5576324 0 29.4375 4.4375 C32.82341644 7.82341644 33.16589503 10.26324416 33.25 14.875 C33.17600094 20.53181714 31.80767427 23.19232573 27.8125 27.1875 C22.44628077 30.64573017 16.23785731 31.22026784 10 32 C10.01160156 32.99902344 10.02320313 33.99804688 10.03515625 35.02734375 C10.04417969 36.31769531 10.05320313 37.60804688 10.0625 38.9375 C10.07410156 40.22527344 10.08570313 41.51304687 10.09765625 42.83984375 C10 46 10 46 9 47 C6.03 47 3.06 47 0 47 C0 31.49 0 15.98 0 0 Z M9 8 C9 12.95 9 17.9 9 23 C15.74773644 23.28834762 15.74773644 23.28834762 22 21 C24.31282587 17.53076119 24.42478586 16.07794425 24 12 C22.14657225 9.44050454 21.06243607 9.02081202 18 8 C16.43881572 7.93259135 14.8749748 7.91485544 13.3125 7.9375 C11.889375 7.958125 10.46625 7.97875 9 8 Z " fill="#EA2331" transform="translate(198,210)"/>
<path d="M0 0 C4.82147956 4.82147956 5.7332509 10.80989878 5.85546875 17.47265625 C5.83581071 19.52364461 5.80045301 21.57453805 5.75 23.625 C5.72969727 25.20958008 5.72969727 25.20958008 5.70898438 26.82617188 C5.6739709 29.40549809 5.62486675 31.98371494 5.5625 34.5625 C-0.4921875 34.7578125 -0.4921875 34.7578125 -2.4375 34.5625 C-3.0975 33.9025 -3.7575 33.2425 -4.4375 32.5625 C-5.0975 33.0575 -5.7575 33.5525 -6.4375 34.0625 C-10.1883718 35.9379359 -13.36435316 36.38985795 -17.4375 35.5625 C-20.70000137 33.66431738 -22.82485287 32.26965156 -24.1328125 28.625 C-24.73860398 25.22225638 -24.62939401 23.05916685 -23.375 19.8125 C-18.05661492 13.63631087 -12.17403669 12.60872204 -4.4375 11.5625 C-5.0975 10.2425 -5.7575 8.9225 -6.4375 7.5625 C-11.62959404 7.35057779 -15.564239 7.9712311 -20.4375 9.5625 C-21.76357256 7.37838049 -22.4987363 6.11151513 -22.2109375 3.53125 C-21.4375 1.5625 -21.4375 1.5625 -18 -0.1875 C-11.82082906 -2.19545322 -6.03348453 -2.52309353 0 0 Z M-14.4375 21.5625 C-15.41483657 23.55025876 -15.41483657 23.55025876 -15.4375 25.5625 C-15.1075 26.2225 -14.7775 26.8825 -14.4375 27.5625 C-9.11579506 27.85812367 -9.11579506 27.85812367 -4.4375 25.5625 C-4.18734127 21.97892759 -4.18734127 21.97892759 -4.4375 18.5625 C-8.68098127 18.19877303 -11.06462264 18.93915094 -14.4375 21.5625 Z " fill="#EC2230" transform="translate(257.4375,222.4375)"/>
<path d="M0 0 C2.97 0 5.94 0 9 0 C9.95972174 2.54115002 10.91781494 5.08289457 11.875 7.625 C12.14441406 8.33785156 12.41382813 9.05070313 12.69140625 9.78515625 C12.95566406 10.48769531 13.21992188 11.19023437 13.4921875 11.9140625 C13.73308105 12.5529541 13.97397461 13.1918457 14.22216797 13.85009766 C15.19862315 16.54898789 16.09239473 19.2771842 17 22 C19.31 14.74 21.62 7.48 24 0 C26.97 0 29.94 0 33 0 C32.17031816 7.14086364 29.90968588 13.58902033 27.49951172 20.33325195 C26.75461473 22.42454417 26.02717252 24.52136002 25.30078125 26.61914062 C19.61816041 42.78385742 19.61816041 42.78385742 13.75 48 C9.81999532 49.42909261 6.1362835 49.24331079 2 49 C2.33 46.36 2.66 43.72 3 41 C5.64 40.67 8.28 40.34 11 40 C12.21193337 34.37519012 11.70232839 31.13137378 9.47265625 25.859375 C9.20488876 25.21051331 8.93712128 24.56165161 8.66123962 23.89312744 C7.81041239 21.83856452 6.93775109 19.79426241 6.0625 17.75 C5.19487623 15.69002497 4.33201748 13.62821653 3.47447205 11.56402588 C2.69790798 9.69999273 1.90800264 7.84153429 1.11743164 5.98339844 C0 3 0 3 0 0 Z " fill="#EC2230" transform="translate(267,222)"/>
<path d="M0 0 C18 0 18 0 26 4 C28.07324138 7.10986207 28.27392186 7.89108387 28.25 11.4375 C28.25515625 12.19933594 28.2603125 12.96117187 28.265625 13.74609375 C27.83939922 17.36274482 26.55269882 19.44730118 24 22 C24.969375 22.78375 25.93875 23.5675 26.9375 24.375 C28.83962346 25.91288705 29.89629957 26.79259913 31 29 C31.42308868 33.14138723 31.40035969 36.87398837 30 40.8125 C28 43 28 43 20 47 C13.4 47 6.8 47 0 47 C0 31.49 0 15.98 0 0 Z M4 4 C4 9.28 4 14.56 4 20 C14.12466088 20.85325588 14.12466088 20.85325588 23 17 C24.00871737 13.53253403 24.32030889 11.18514288 23.375 7.6875 C21.48521288 5.36821581 19.84992746 4.90554779 17 4 C13.64494474 3.75950068 13.64494474 3.75950068 10.1875 3.875 C8.145625 3.91625 6.10375 3.9575 4 4 Z M4 24 C4 30.27 4 36.54 4 43 C6.371875 43.061875 8.74375 43.12375 11.1875 43.1875 C11.92508545 43.21481201 12.6626709 43.24212402 13.42260742 43.27026367 C17.84348302 43.32578581 20.4971003 42.693055 24 40 C26.08561071 37.35822644 27 35.88220383 27 32.5 C25.64593222 29.11483055 23.77942465 27.32696017 21 25 C17.4731577 23.71392551 13.96859987 23.900314 10.25 23.9375 C7.15625 23.9684375 7.15625 23.9684375 4 24 Z " fill="#EF2230" transform="translate(0,210)"/>
<path d="M0 0 C3.37183747 1.66527483 5.41232881 4.03835624 7.375 7.25 C8 10 8 10 8 19 C0.08 19 -7.84 19 -16 19 C-13.56960286 26.76701362 -13.56960286 26.76701362 -8 31 C-3.17164932 31.52672917 0.50092485 30.75573664 5 29 C5.66 30.32 6.32 31.64 7 33 C1.59507028 35.75996411 -2.92375168 36.94638912 -9 36 C-13.3468228 34.56529228 -15.60830218 32.51539187 -18.375 28.875 C-20.86500486 23.84109408 -21.69424934 18.26638623 -20.5234375 12.7578125 C-18.89288799 8.009509 -16.59090219 3.57007563 -12.17578125 0.89453125 C-8.19693479 -0.74129611 -4.21130231 -0.6509584 0 0 Z M-14 8 C-14.99 11.465 -14.99 11.465 -16 15 C-9.4 15 -2.8 15 4 15 C3.0659114 8.48988864 3.0659114 8.48988864 -1 4 C-6.7143679 3.18366173 -10.03027738 3.44649465 -14 8 Z " fill="#EF2331" transform="translate(57,222)"/>
<path d="M0 0 C4.07497969 2.11264316 5.94729254 4.89458508 8 9 C8 12.3 8 15.6 8 19 C0.08 19 -7.84 19 -16 19 C-13.0152802 27.37933766 -13.0152802 27.37933766 -9.6875 30.0625 C-4.08306783 32.01753448 0.58221916 31.11425594 6 29 C6.33 30.32 6.66 31.64 7 33 C0.54645284 36.22677358 -3.9780343 36.70975865 -11.1875 35.4375 C-15.91855902 33.01940317 -18.34678181 28.95965458 -20 24 C-20.66739803 16.61485787 -20.65969588 10.05760464 -16 4 C-11.27388313 -0.50106369 -6.26322657 -1.18960634 0 0 Z M-14 9 C-14.66 10.98 -15.32 12.96 -16 15 C-9.4 15 -2.8 15 4 15 C3.56775953 8.51446252 3.56775953 8.51446252 1.4375 5.5625 C-1.40425245 3.74086382 -3.66654594 3.36886375 -7.03515625 3.55078125 C-10.48349261 4.33916829 -11.9526154 6.23000907 -14 9 Z " fill="#F02230" transform="translate(127,222)"/>
<path d="M0 0 C1.32 0.33 2.64 0.66 4 1 C4 1.99 4 2.98 4 4 C5.175625 3.01 5.175625 3.01 6.375 2 C10.62304961 -0.83203308 15.0695482 -0.83021353 20 0 C23.92083078 2.54854001 24.75335223 5.61585592 26 10 C26.22705078 12.97607422 26.22705078 12.97607422 26.1953125 16.0546875 C26.18886719 17.16328125 26.18242188 18.271875 26.17578125 19.4140625 C26.15902344 20.55617187 26.14226562 21.69828125 26.125 22.875 C26.11597656 24.0403125 26.10695313 25.205625 26.09765625 26.40625 C26.07417432 29.27104577 26.04133141 32.13541535 26 35 C24.35 35 22.7 35 21 35 C20.98018066 34.19780029 20.96036133 33.39560059 20.93994141 32.5690918 C20.84480505 28.94155823 20.7350792 25.31460955 20.625 21.6875 C20.5940625 20.42486328 20.563125 19.16222656 20.53125 17.86132812 C20.49257812 16.65283203 20.45390625 15.44433594 20.4140625 14.19921875 C20.3826416 13.08377686 20.3512207 11.96833496 20.31884766 10.8190918 C20.194751 7.79631214 20.194751 7.79631214 18 5 C14.09554603 4.47440043 11.50575974 4.80925278 7.8203125 6.19921875 C3.87953436 10.11270619 4.23713147 13.1962715 4.1171875 18.59375 C4.11976562 19.8003125 4.12234375 21.006875 4.125 22.25 C4.104375 23.47203125 4.08375 24.6940625 4.0625 25.953125 C4.01537025 28.96942909 3.99556196 31.98340264 4 35 C2.68 35 1.36 35 0 35 C0 23.45 0 11.9 0 0 Z " fill="#F12230" transform="translate(73,222)"/>
<path d="M0 0 C0.66 0.33 1.32 0.66 2 1 C1.67 2.32 1.34 3.64 1 5 C-1.31 5 -3.62 5 -6 5 C-7.21693876 7.43387753 -7.31959896 9.41838846 -7.5625 12.125 C-7.64628906 13.03507813 -7.73007813 13.94515625 -7.81640625 14.8828125 C-7.87699219 15.58148438 -7.93757812 16.28015625 -8 17 C-5.69 17 -3.38 17 -1 17 C-0.67 18.32 -0.34 19.64 0 21 C-2.64 21 -5.28 21 -8 21 C-8 31.23 -8 41.46 -8 52 C-9.65 52 -11.3 52 -13 52 C-13 41.77 -13 31.54 -13 21 C-14.32 21 -15.64 21 -17 21 C-17 20.01 -17 19.02 -17 18 C-15.68 18 -14.36 18 -13 18 C-13.03480469 17.43152344 -13.06960937 16.86304688 -13.10546875 16.27734375 C-13.30196172 10.67261561 -12.7190865 6.93463847 -10 2 C-6.33134759 -0.44576827 -4.32799657 -0.23607254 0 0 Z " fill="#ED2230" transform="translate(156,205)"/>
<path d="M0 0 C1.32 0 2.64 0 4 0 C4 2.97 4 5.94 4 9 C7.3 9 10.6 9 14 9 C14 10.32 14 11.64 14 13 C10.7 13 7.4 13 4 13 C4.33 21.91 4.66 30.82 5 40 C7.97 40 10.94 40 14 40 C14.33 41.32 14.66 42.64 15 44 C11.36217368 45.21260877 8.82264001 45.39544552 5 45 C2.3123597 43.35173575 1.39612989 42.723265 0 40 C-0.62515674 35.38334003 -0.46878953 30.83531031 -0.3125 26.1875 C-0.27866211 24.28967773 -0.27866211 24.28967773 -0.24414062 22.35351562 C-0.18529078 19.23447381 -0.1031137 16.11784098 0 13 C-1.65 13 -3.3 13 -5 13 C-5 12.01 -5 11.02 -5 10 C-3.35 10 -1.7 10 0 10 C0 6.7 0 3.4 0 0 Z " fill="#F02230" transform="translate(178,213)"/>
<path d="M0 0 C1.32 0 2.64 0 4 0 C4.66 2.97 5.32 5.94 6 9 C7.99097846 6.01353231 8.94124926 3.40312738 10 0 C10.99 0 11.98 0 13 0 C13.99 3.3 14.98 6.6 16 10 C16.99 6.7 17.98 3.4 19 0 C19.99 0 20.98 0 22 0 C21.51358785 6.84817102 20.64006048 13.33042073 19 20 C17.35 20 15.7 20 14 20 C13.01 16.7 12.02 13.4 11 10 C10.34 12.97 9.68 15.94 9 19 C7.35 19.33 5.7 19.66 4 20 C3.32923511 17.23010036 2.66323683 14.45920258 2 11.6875 C1.80921875 10.90181641 1.6184375 10.11613281 1.421875 9.30664062 C1.24140625 8.54931641 1.0609375 7.79199219 0.875 7.01171875 C0.70742187 6.31522217 0.53984375 5.61872559 0.3671875 4.90112305 C0 3 0 3 0 0 Z " fill="#787474" transform="translate(226,279)"/>
<path d="M0 0 C0 0.66 0 1.32 0 2 C-1.56054688 3.14501953 -1.56054688 3.14501953 -3.71875 4.3828125 C-4.86923828 5.04990234 -4.86923828 5.04990234 -6.04296875 5.73046875 C-7.25919922 6.42076172 -7.25919922 6.42076172 -8.5 7.125 C-9.71623047 7.82689453 -9.71623047 7.82689453 -10.95703125 8.54296875 C-12.96762641 9.70201772 -14.98196761 10.85396471 -17 12 C-17.66 11.34 -18.32 10.68 -19 10 C-16.21251481 8.32626249 -13.41935573 6.66223733 -10.625 5 C-9.8309375 4.52304688 -9.036875 4.04609375 -8.21875 3.5546875 C-7.45820312 3.10351562 -6.69765625 2.65234375 -5.9140625 2.1875 C-4.8614624 1.55908203 -4.8614624 1.55908203 -3.78759766 0.91796875 C-2 0 -2 0 0 0 Z M-19 11 C-20.13218196 14.39654589 -20.471939 14.55898689 -23.45703125 16.15625 C-24.15763672 16.53910156 -24.85824219 16.92195312 -25.58007812 17.31640625 C-26.31677734 17.70699219 -27.05347656 18.09757813 -27.8125 18.5 C-29.25793646 19.27860844 -30.70199071 20.05978927 -32.14453125 20.84375 C-32.78753174 21.18599609 -33.43053223 21.52824219 -34.09301758 21.88085938 C-36.18909832 23.11097513 -38.08138443 24.51090933 -40 26 C-38.68394775 26.02505615 -37.36789551 26.0501123 -36.01196289 26.07592773 C-31.09732467 26.17058684 -26.18280867 26.27066124 -21.26831055 26.37231445 C-19.14724602 26.41544325 -17.02615169 26.45713236 -14.9050293 26.49731445 C-11.84414717 26.55555534 -8.78341206 26.61909048 -5.72265625 26.68359375 C-4.3158535 26.70866249 -4.3158535 26.70866249 -2.88063049 26.73423767 C2.80490501 26.86020129 8.35649736 27.29235866 14 28 C14 28.33 14 28.66 14 29 C-6.79 29.33 -27.58 29.66 -49 30 C-47.64091726 25.92275178 -45.7409439 25.36782002 -42.06640625 23.20703125 C-41.47327133 22.85613937 -40.88013641 22.5052475 -40.26902771 22.14372253 C-39.01476098 21.40416948 -37.757934 20.66894397 -36.4987793 19.93774414 C-34.5679052 18.81564116 -32.64581736 17.67957301 -30.72460938 16.54101562 C-21.29604748 11 -21.29604748 11 -19 11 Z " fill="#A6327B" transform="translate(120,143)"/>
<path d="M0 0 C9.68965517 0 9.68965517 0 13 3 C13.3125 5.5625 13.3125 5.5625 13 8 C13 11.04200046 13.55486342 13.99532806 14 17 C10 20 10 20 0 20 C0 13.4 0 6.8 0 0 Z M3 4 C3 5.32 3 6.64 3 8 C4.98 8 6.96 8 9 8 C9 6.68 9 5.36 9 4 C7.02 4 5.04 4 3 4 Z M3 11 C3 12.98 3 14.96 3 17 C4.98 17 6.96 17 9 17 C9.33 15.35 9.66 13.7 10 12 C7.69 11.67 5.38 11.34 3 11 Z " fill="#757072" transform="translate(0,279)"/>
<path d="M0 0 C2.95857409 -0.05379226 5.91617721 -0.09357093 8.875 -0.125 C9.71675781 -0.14175781 10.55851562 -0.15851563 11.42578125 -0.17578125 C12.23144531 -0.18222656 13.03710938 -0.18867188 13.8671875 -0.1953125 C14.98262939 -0.21102295 14.98262939 -0.21102295 16.12060547 -0.22705078 C18 0 18 0 20 2 C20.1953125 5.0390625 20.1953125 5.0390625 20.125 8.625 C20.10695313 9.81351562 20.08890625 11.00203125 20.0703125 12.2265625 C20.04710938 13.14179688 20.02390625 14.05703125 20 15 C18.37536158 15.05395478 16.75021459 15.09277195 15.125 15.125 C13.76761719 15.15980469 13.76761719 15.15980469 12.3828125 15.1953125 C10 15 10 15 8 13 C7.9375 10.625 7.9375 10.625 9 8 C11.23879409 6.33429435 13.47500018 5.23954537 16 4 C14.9275 4 13.855 4 12.75 4 C10.16666667 4 7.58333333 4 5 4 C3.85185003 6.29629994 3.69230191 8.07698086 3.4375 10.625 C3.35371094 11.44226563 3.26992188 12.25953125 3.18359375 13.1015625 C3.12300781 13.72804688 3.06242187 14.35453125 3 15 C2.01 15 1.02 15 0 15 C0 10.05 0 5.1 0 0 Z M12 9 C12 9.99 12 10.98 12 12 C13.65 11.67 15.3 11.34 17 11 C17 10.01 17 9.02 17 8 C14.78918149 7.89459074 14.78918149 7.89459074 12 9 Z " fill="#777676" transform="translate(46,284)"/>
<path d="M0 0 C4 1 4 1 5.703125 3.28515625 C6.21359375 4.20167969 6.7240625 5.11820312 7.25 6.0625 C8.03117187 7.44115234 8.03117187 7.44115234 8.828125 8.84765625 C9.21484375 9.55792969 9.6015625 10.26820313 10 11 C10.33 7.37 10.66 3.74 11 0 C11.99 0 12.98 0 14 0 C14 6.6 14 13.2 14 20 C12.68 20 11.36 20 10 20 C8.02 16.37 6.04 12.74 4 9 C3.67 12.63 3.34 16.26 3 20 C2.01 20 1.02 20 0 20 C0 13.4 0 6.8 0 0 Z " fill="#787474" transform="translate(98,279)"/>
<path d="M0 0 C1.98 0.495 1.98 0.495 4 1 C4 12.22 4 23.44 4 35 C2.35 35 0.7 35 -1 35 C-1.0246519 30.17619198 -1.04283693 25.35242033 -1.05493164 20.52856445 C-1.05997174 18.88630536 -1.06680378 17.24405077 -1.07543945 15.60180664 C-1.08751926 13.24624521 -1.09323139 10.89074291 -1.09765625 8.53515625 C-1.10281754 7.79660904 -1.10797882 7.05806183 -1.11329651 6.2971344 C-1.1134925 4.53101912 -1.06194719 2.76502854 -1 1 C-0.67 0.67 -0.34 0.34 0 0 Z " fill="#EC2230" transform="translate(162,222)"/>
<path d="M0 0 C1.32 0 2.64 0 4 0 C4.33 1.98 4.66 3.96 5 6 C6.134375 6.12375 7.26875 6.2475 8.4375 6.375 C9.613125 6.58125 10.78875 6.7875 12 7 C13.38226016 9.76452033 13.09525387 12.0461363 13.0625 15.125 C13.05347656 16.22070312 13.04445313 17.31640625 13.03515625 18.4453125 C13.02355469 19.28835938 13.01195312 20.13140625 13 21 C11.68 21 10.36 21 9 21 C8.67 17.37 8.34 13.74 8 10 C6.68 10 5.36 10 4 10 C4 13.63 4 17.26 4 21 C2.68 21 1.36 21 0 21 C0 14.07 0 7.14 0 0 Z " fill="#767474" transform="translate(30,278)"/>
<path d="M0 0 C3.63 0 7.26 0 11 0 C11 1.32 11 2.64 11 4 C8.36 4 5.72 4 3 4 C3 5.32 3 6.64 3 8 C5.31 8 7.62 8 10 8 C10 9.32 10 10.64 10 12 C7.69 12 5.38 12 3 12 C3 13.65 3 15.3 3 17 C5.97 17 8.94 17 12 17 C12 17.99 12 18.98 12 20 C8.04 20 4.08 20 0 20 C0 13.4 0 6.8 0 0 Z " fill="#797374" transform="translate(205,279)"/>
<path d="M0 0 C11.95964297 -0.5786924 22.77704374 3.02414532 31.75 11.125 C38.00628641 17.7595735 41.19740106 26.77412875 41.0625 35.8125 C41.05347656 36.60269531 41.04445312 37.39289062 41.03515625 38.20703125 C41.02355469 38.79871094 41.01195312 39.39039063 41 40 C38.29884708 37.29884708 38.30552869 35.11390471 37.625 31.375 C35.71701159 22.12786805 32.91344503 14.67222458 25 9 C17.03497156 4.97489204 8.81390389 3.06402083 0 2 C0 1.34 0 0.68 0 0 Z " fill="#F8AD72" transform="translate(183,0)"/>
<path d="M0 0 C1.32 0.33 2.64 0.66 4 1 C4.33 0.67 4.66 0.34 5 0 C7.375 -0.3125 7.375 -0.3125 10 0 C12.258962 2.26964267 12.95687496 3.58829959 13.29296875 6.796875 C13.25816406 7.77140625 13.22335938 8.7459375 13.1875 9.75 C13.16042969 10.73484375 13.13335937 11.7196875 13.10546875 12.734375 C13.07066406 13.48203125 13.03585938 14.2296875 13 15 C11.68 15 10.36 15 9 15 C8.67 11.37 8.34 7.74 8 4 C6.68 4 5.36 4 4 4 C4 7.63 4 11.26 4 15 C2.68 15 1.36 15 0 15 C0 10.05 0 5.1 0 0 Z " fill="#777475" transform="translate(76,284)"/>
<path d="M0 0 C1.6796875 1.12890625 1.6796875 1.12890625 3 3 C3.29296875 5.91796875 3.29296875 5.91796875 3.1875 9.1875 C3.16042969 10.27417969 3.13335937 11.36085938 3.10546875 12.48046875 C3.07066406 13.31191406 3.03585937 14.14335937 3 15 C1.18757948 15.02687279 -0.62495233 15.04633715 -2.4375 15.0625 C-3.44683594 15.07410156 -4.45617187 15.08570313 -5.49609375 15.09765625 C-8 15 -8 15 -9 14 C-9.29718836 11.17671054 -9.42837659 9.59972723 -7.75 7.25 C-5.82982367 5.87844548 -4.27357966 5.53050192 -2 5 C-1.67 4.34 -1.34 3.68 -1 3 C-3.31 3.33 -5.62 3.66 -8 4 C-8 3.01 -8 2.02 -8 1 C-5.20129973 -0.39935013 -3.09501208 -0.25265405 0 0 Z M-2 8 C-3.98 8.99 -3.98 8.99 -6 10 C-6 10.66 -6 11.32 -6 12 C-4.35 12 -2.7 12 -1 12 C-1.33 10.68 -1.66 9.36 -2 8 Z " fill="#787475" transform="translate(258,284)"/>
<path d="M0 0 C1.6796875 1.12890625 1.6796875 1.12890625 3 3 C3.29296875 5.91796875 3.29296875 5.91796875 3.1875 9.1875 C3.16042969 10.27417969 3.13335937 11.36085938 3.10546875 12.48046875 C3.07066406 13.31191406 3.03585938 14.14335937 3 15 C1.37536158 15.05395478 -0.24978541 15.09277195 -1.875 15.125 C-2.77992187 15.14820313 -3.68484375 15.17140625 -4.6171875 15.1953125 C-7 15 -7 15 -9 13 C-8.67028521 9.70285207 -8.3773161 8.3773161 -6 6 C-5.319375 5.835 -4.63875 5.67 -3.9375 5.5 C-3.298125 5.335 -2.65875 5.17 -2 5 C-1.67 4.34 -1.34 3.68 -1 3 C-3.31 3.33 -5.62 3.66 -8 4 C-8 3.01 -8 2.02 -8 1 C-5.20129973 -0.39935013 -3.09501208 -0.25265405 0 0 Z M-5 9 C-5 9.99 -5 10.98 -5 12 C-3.35 11.67 -1.7 11.34 0 11 C0 10.01 0 9.02 0 8 C-2.21081851 7.89459074 -2.21081851 7.89459074 -5 9 Z " fill="#777575" transform="translate(124,284)"/>
<path d="M0 0 C1.8125 1.125 1.8125 1.125 3 3 C3.1875 6.1875 3.1875 6.1875 3 9 C0.36 9.33 -2.28 9.66 -5 10 C-5 10.66 -5 11.32 -5 12 C-2.36 12 0.28 12 3 12 C2.67 12.99 2.34 13.98 2 15 C-5.4057508 15.36421725 -5.4057508 15.36421725 -7.9375 13.8125 C-9.31956119 11.45486621 -9.8045898 9.73574279 -10 7 C-8.46448911 1.49775264 -5.79138466 -0.72392308 0 0 Z M-4 3 C-4.99 4.485 -4.99 4.485 -6 6 C-4.02 6 -2.04 6 0 6 C-0.33 5.01 -0.66 4.02 -1 3 C-1.99 3 -2.98 3 -4 3 Z " fill="#767272" transform="translate(287,284)"/>
<path d="M0 0 C2 2 2 2 2.1953125 5.0390625 C2.17210937 6.22242188 2.14890625 7.40578125 2.125 8.625 C2.10695312 9.81351562 2.08890625 11.00203125 2.0703125 12.2265625 C2.04710937 13.14179688 2.02390625 14.05703125 2 15 C0.37536158 15.05395478 -1.24978541 15.09277195 -2.875 15.125 C-3.77992188 15.14820313 -4.68484375 15.17140625 -5.6171875 15.1953125 C-8 15 -8 15 -10 13 C-10.0625 10.5625 -10.0625 10.5625 -9 8 C-5.4375 6.1875 -5.4375 6.1875 -2 5 C-5.10540926 3.78918149 -5.10540926 3.78918149 -9 4 C-9 3.01 -9 2.02 -9 1 C-5.75778445 -0.08073852 -3.39597063 -0.21676408 0 0 Z M-6 10 C-6 10.66 -6 11.32 -6 12 C-4.35 11.67 -2.7 11.34 -1 11 C-1 10.01 -1 9.02 -1 8 C-3.32357511 7.81509993 -3.32357511 7.81509993 -6 10 Z " fill="#767575" transform="translate(186,284)"/>
<path d="M0 0 C2 2 2 2 2.1953125 5.0390625 C2.17210937 6.22242188 2.14890625 7.40578125 2.125 8.625 C2.10695313 9.81351562 2.08890625 11.00203125 2.0703125 12.2265625 C2.04710937 13.14179688 2.02390625 14.05703125 2 15 C0.37536158 15.05395478 -1.24978541 15.09277195 -2.875 15.125 C-3.77992187 15.14820313 -4.68484375 15.17140625 -5.6171875 15.1953125 C-8 15 -8 15 -10 13 C-10.0625 10.5625 -10.0625 10.5625 -9 8 C-5.4375 6.1875 -5.4375 6.1875 -2 5 C-5.10540926 3.78918149 -5.10540926 3.78918149 -9 4 C-9 3.01 -9 2.02 -9 1 C-5.75778445 -0.08073852 -3.39597063 -0.21676408 0 0 Z M-6 10 C-6 10.66 -6 11.32 -6 12 C-4.35 11.67 -2.7 11.34 -1 11 C-1 10.01 -1 9.02 -1 8 C-3.32357511 7.81509993 -3.32357511 7.81509993 -6 10 Z " fill="#777575" transform="translate(25,284)"/>
<path d="M0 0 C3.1875 0.3125 3.1875 0.3125 5.5625 1.8125 C7.99414499 5.55349229 7.67924842 7.88676418 7.1875 12.3125 C6.125 14.3125 6.125 14.3125 4.1875 15.3125 C-1.75189394 15.94886364 -1.75189394 15.94886364 -4.6875 14.1875 C-6.30248958 11.49585071 -6.68706746 9.44831361 -6.8125 6.3125 C-3.94043734 0.43782637 -3.94043734 0.43782637 0 0 Z M-0.8125 3.3125 C-3.16223818 5.21005144 -3.16223818 5.21005144 -2.9375 8.4375 C-2.89625 9.38625 -2.855 10.335 -2.8125 11.3125 C-0.3375 11.8075 -0.3375 11.8075 2.1875 12.3125 C4.52141203 9.53135944 4.52141203 9.53135944 3.8125 6.625 C3.60625 5.861875 3.4 5.09875 3.1875 4.3125 C1.29570797 3.6310177 1.29570797 3.6310177 -0.8125 3.3125 Z " fill="#787475" transform="translate(151.8125,283.6875)"/>
<path d="M0 0 C1.60875 -0.061875 3.2175 -0.12375 4.875 -0.1875 C5.77992188 -0.22230469 6.68484375 -0.25710938 7.6171875 -0.29296875 C8.79667969 -0.14794922 8.79667969 -0.14794922 10 0 C12.35119399 3.52679099 12.21443452 5.02879485 12.125 9.1875 C12.10695312 10.27417969 12.08890625 11.36085938 12.0703125 12.48046875 C12.03550781 13.72763672 12.03550781 13.72763672 12 15 C10.68 15 9.36 15 8 15 C8 11.04 8 7.08 8 3 C6.02 3.99 6.02 3.99 4 5 C3.29823412 7.41679707 3.29823412 7.41679707 3.25 10.125 C3.19328125 11.03507812 3.1365625 11.94515625 3.078125 12.8828125 C3.03945312 13.93082031 3.03945312 13.93082031 3 15 C2.01 15 1.02 15 0 15 C0 10.05 0 5.1 0 0 Z " fill="#767676" transform="translate(162,284)"/>
<path d="M0 0 C0.33 0 0.66 0 1 0 C1.54036324 6.49585591 -2.15895726 10.10231353 -6 15 C-6.65226562 15.84304687 -7.30453125 16.68609375 -7.9765625 17.5546875 C-14.55241787 25.46049115 -23.4815612 31.96569481 -33 36 C-33.99 36 -34.98 36 -36 36 C-36 35.34 -36 34.68 -36 34 C-35.12859375 33.62230469 -34.2571875 33.24460938 -33.359375 32.85546875 C-18.31576758 25.90349866 -6.87997552 15.37876881 0 0 Z " fill="#F02E37" transform="translate(209,131)"/>
<path d="M0 0 C0.99 0.33 1.98 0.66 3 1 C2.67 1.99 2.34 2.98 2 4 C1.34 4 0.68 4 0 4 C0 2.68 0 1.36 0 0 Z M-1 4 C-0.34 4.33 0.32 4.66 1 5 C0.25180406 13.82871212 -1.61817822 22.31715953 -4.125 30.8125 C-4.81491424 33.32575901 -5.22038917 35.49779378 -5.5 38.0625 C-5.9556769 41.65095561 -6.81557015 44.60463444 -8 48 C-8 48.99 -8 49.98 -8 51 C-8.66 51 -9.32 51 -10 51 C-9.3583818 41.08037899 -7.08676815 31.55269993 -4.9375 21.875 C-4.55612222 20.13813458 -4.17525845 18.40115622 -3.79492188 16.6640625 C-2.8692059 12.44138199 -1.93653477 8.22029363 -1 4 Z " fill="#ED2633" transform="translate(103,0)"/>
<path d="M0 0 C0.99 0 1.98 0 3 0 C3 1.32 3 2.64 3 4 C4.32 4.33 5.64 4.66 7 5 C7 5.66 7 6.32 7 7 C5.68 7 4.36 7 3 7 C3 9.97 3 12.94 3 16 C4.32 16 5.64 16 7 16 C7 16.99 7 17.98 7 19 C4.125 19.125 4.125 19.125 1 19 C-1 17 -1 17 -1.1953125 14.6171875 C-1.17210937 13.71226562 -1.14890625 12.80734375 -1.125 11.875 C-1.10695312 10.96492188 -1.08890625 10.05484375 -1.0703125 9.1171875 C-1.04710937 8.41851562 -1.02390625 7.71984375 -1 7 C-1.66 7 -2.32 7 -3 7 C-3 6.01 -3 5.02 -3 4 C-2.34 4 -1.68 4 -1 4 C-0.67 2.68 -0.34 1.36 0 0 Z " fill="#767474" transform="translate(131,280)"/>
<path d="M0 0 C0.33 0 0.66 0 1 0 C1 5.28 1 10.56 1 16 C5.05085679 15.75368443 5.05085679 15.75368443 9 15 C10.5899433 13.07935207 10.5899433 13.07935207 11 11 C9.68 10.67 8.36 10.34 7 10 C7 9.34 7 8.68 7 8 C5.35 8 3.7 8 2 8 C2 7.67 2 7.34 2 7 C3.98 6.67 5.96 6.34 8 6 C8.33 4.35 8.66 2.7 9 1 C9.99 1.33 10.98 1.66 12 2 C11.79375 2.763125 11.5875 3.52625 11.375 4.3125 C10.66608797 7.21885944 10.66608797 7.21885944 13 10 C13.375 12.5 13.375 12.5 13 15 C11.5625 16.8125 11.5625 16.8125 9 18 C6.03 18 3.06 18 0 18 C0 12.06 0 6.12 0 0 Z " fill="#797878" transform="translate(1,281)"/>
<path d="M0 0 C0.99 0 1.98 0 3 0 C3 1.32 3 2.64 3 4 C4.32 4 5.64 4 7 4 C7 4.99 7 5.98 7 7 C5.68 7 4.36 7 3 7 C3 9.97 3 12.94 3 16 C4.32 16 5.64 16 7 16 C7 16.99 7 17.98 7 19 C5.00045254 19.04254356 2.99958364 19.04080783 1 19 C0 18 0 18 -0.09765625 15.49609375 C-0.08605469 14.48675781 -0.07445312 13.47742188 -0.0625 12.4375 C-0.05347656 11.42558594 -0.04445313 10.41367187 -0.03515625 9.37109375 C-0.02355469 8.58863281 -0.01195312 7.80617188 0 7 C-0.66 7 -1.32 7 -2 7 C-2 6.01 -2 5.02 -2 4 C-1.34 4 -0.68 4 0 4 C0 2.68 0 1.36 0 0 Z " fill="#737273" transform="translate(293,280)"/>
<path d="M0 0 C1.32 0 2.64 0 4 0 C4.33 6.93 4.66 13.86 5 21 C3.35 20.67 1.7 20.34 0 20 C0 13.4 0 6.8 0 0 Z " fill="#757474" transform="translate(271,278)"/>
<path d="M0 0 C1.32 0 2.64 0 4 0 C4.06058594 1.26457031 4.12117187 2.52914063 4.18359375 3.83203125 C4.26800904 5.49219871 4.35265655 7.15235437 4.4375 8.8125 C4.47681641 9.64587891 4.51613281 10.47925781 4.55664062 11.33789062 C4.59853516 12.14033203 4.64042969 12.94277344 4.68359375 13.76953125 C4.72025146 14.50792236 4.75690918 15.24631348 4.79467773 16.00708008 C4.94842141 18.207495 4.94842141 18.207495 6 21 C4.35 21 2.7 21 1 21 C-0.17426264 18.65147472 -0.11508173 17.26225935 -0.09765625 14.6484375 C-0.09443359 13.79765625 -0.09121094 12.946875 -0.08789062 12.0703125 C-0.07951172 11.18085938 -0.07113281 10.29140625 -0.0625 9.375 C-0.05798828 8.4778125 -0.05347656 7.580625 -0.04882812 6.65625 C-0.03702591 4.43743352 -0.02056155 2.21874982 0 0 Z " fill="#787374" transform="translate(191,278)"/>
<path d="M0 0 C1.32 0 2.64 0 4 0 C4.33 6.93 4.66 13.86 5 21 C3.35 20.67 1.7 20.34 0 20 C0 13.4 0 6.8 0 0 Z " fill="#767476" transform="translate(264,278)"/>
<path d="M0 0 C-0.33 0.99 -0.66 1.98 -1 3 C-14.86 3 -28.72 3 -43 3 C-39.96068812 -0.03931188 -36.4264171 0.64231625 -32.34375 0.5859375 C-31.05664124 0.55688828 -31.05664124 0.55688828 -29.74353027 0.5272522 C-26.99578868 0.46738154 -24.24800437 0.42106398 -21.5 0.375 C-19.64711696 0.33682291 -17.79425172 0.29777134 -15.94140625 0.2578125 C-3.68730374 0 -3.68730374 0 0 0 Z " fill="#F4363A" transform="translate(165,67)"/>
<path d="M0 0 C-0.433125 0.8353125 -0.433125 0.8353125 -0.875 1.6875 C-1.24625 2.450625 -1.6175 3.21375 -2 4 C-2.556875 5.11375 -2.556875 5.11375 -3.125 6.25 C-4.20563113 9.11520153 -4.20563113 9.11520153 -3.875 12.75 C-3.7094637 20.75593745 -8.13921533 26.66350019 -13.31640625 32.37109375 C-15 34 -15 34 -18 36 C-18 35.01 -18 34.02 -18 33 C-17.278125 32.484375 -16.55625 31.96875 -15.8125 31.4375 C-11.17228849 27.41598335 -8.92123138 21.76369414 -7 16 C-7.08578627 12.67149265 -7.25848424 9.35511537 -7.453125 6.03125 C-7 3 -7 3 -4.609375 1.09375 C-2 0 -2 0 0 0 Z " fill="#EF2934" transform="translate(188,102)"/>
<path d="M0 0 C0.66 0 1.32 0 2 0 C0.85725886 8.10444048 -0.54412982 16.14604127 -2.0625 24.1875 C-2.2368457 25.12037842 -2.41119141 26.05325684 -2.59082031 27.0144043 C-2.75807617 27.89008057 -2.92533203 28.76575684 -3.09765625 29.66796875 C-3.24726807 30.45453857 -3.39687988 31.2411084 -3.55102539 32.05151367 C-4 34 -4 34 -5 36 C-5.66 36 -6.32 36 -7 36 C-8.27189804 32.18430588 -7.33484982 29.6158301 -6.3125 25.875 C-5.9375735 24.4456342 -5.56392091 23.01593376 -5.19140625 21.5859375 C-4.99562988 20.84053711 -4.79985352 20.09513672 -4.59814453 19.32714844 C-3.58849871 15.39900805 -2.66981566 11.4499692 -1.75 7.5 C-1.57509033 6.75218262 -1.40018066 6.00436523 -1.2199707 5.23388672 C-0.8122645 3.48950273 -0.40596595 1.74478982 0 0 Z " fill="#B92E68" transform="translate(82,100)"/>
<path d="M0 0 C1.32 0.33 2.64 0.66 4 1 C4 1.99 4 2.98 4 4 C4.66 4.33 5.32 4.66 6 5 C4.68 4.67 3.36 4.34 2 4 C1.67 13.9 1.34 23.8 1 34 C1.66 34 2.32 34 3 34 C3 25.75 3 17.5 3 9 C3.33 9 3.66 9 4 9 C4 17.58 4 26.16 4 35 C2.68 35 1.36 35 0 35 C0 23.45 0 11.9 0 0 Z " fill="#E9212F" transform="translate(73,222)"/>
<path d="M0 0 C4.07877462 8.03501094 4.07877462 8.03501094 3.75 12.0625 C3.5025 12.701875 3.255 13.34125 3 14 C2.67 14 2.34 14 2 14 C1.01 10.04 0.02 6.08 -1 2 C-10.9 7.94 -10.9 7.94 -21 14 C-21.66 13.34 -22.32 12.68 -23 12 C-19.73565792 9.98925441 -16.46252137 7.99329608 -13.1875 6 C-12.25873047 5.42765625 -11.32996094 4.8553125 -10.37304688 4.265625 C-9.48037109 3.72421875 -8.58769531 3.1828125 -7.66796875 2.625 C-6.84578857 2.12226562 -6.0236084 1.61953125 -5.17651367 1.1015625 C-3 0 -3 0 0 0 Z " fill="#F45F4D" transform="translate(211,89)"/>
<path d="M0 0 C0.66 0 1.32 0 2 0 C1.68853528 1.89600369 1.37578283 3.79179587 1.0625 5.6875 C0.88847656 6.74324219 0.71445313 7.79898438 0.53515625 8.88671875 C-0.35412268 14.06011513 -1.45943177 19.18083474 -2.5625 24.3125 C-2.83191406 25.56675781 -3.10132812 26.82101563 -3.37890625 28.11328125 C-3.58386719 29.06589844 -3.78882812 30.01851562 -4 31 C-4.99 31 -5.98 31 -7 31 C-6.16601461 27.06683202 -5.32977512 23.13415074 -4.49145508 19.2019043 C-4.20665679 17.86447077 -3.92247193 16.52690646 -3.63891602 15.18920898 C-3.23094875 13.26511818 -2.82058327 11.34153637 -2.41015625 9.41796875 C-2.16402588 8.26063232 -1.91789551 7.1032959 -1.66430664 5.91088867 C-1 3 -1 3 0 0 Z " fill="#D7284A" transform="translate(92,53)"/>
<path d="M0 0 C2 2 2 2 2.125 5.125 C2.08375 6.07375 2.0425 7.0225 2 8 C-0.97 8 -3.94 8 -7 8 C-7.33 8.99 -7.66 9.98 -8 11 C-8.08096803 9.54257537 -8.13917774 8.08387193 -8.1875 6.625 C-8.22230469 5.81289063 -8.25710938 5.00078125 -8.29296875 4.1640625 C-8.19628906 3.44992187 -8.09960938 2.73578125 -8 2 C-4.77626323 -0.14915785 -3.73296326 -0.38286803 0 0 Z M-4 3 C-4.99 4.485 -4.99 4.485 -6 6 C-4.02 6 -2.04 6 0 6 C-0.33 5.01 -0.66 4.02 -1 3 C-1.99 3 -2.98 3 -4 3 Z " fill="#797979" transform="translate(287,284)"/>
<path d="M0 0 C1.32 0 2.64 0 4 0 C4 4.95 4 9.9 4 15 C2.68 15 1.36 15 0 15 C0 10.05 0 5.1 0 0 Z " fill="#777374" transform="translate(139,284)"/>
<path d="M0 0 C1.32 0 2.64 0 4 0 C4 4.95 4 9.9 4 15 C2.68 15 1.36 15 0 15 C0 10.05 0 5.1 0 0 Z " fill="#777374" transform="translate(69,284)"/>
<path d="M0 0 C-1.38089538 4.14268615 -4.2623051 5.3752945 -7.8125 7.5625 C-8.44220703 7.96146484 -9.07191406 8.36042969 -9.72070312 8.77148438 C-18.03919293 14 -18.03919293 14 -22 14 C-22 13.34 -22 12.68 -22 12 C-21.05898437 11.55269531 -20.11796875 11.10539063 -19.1484375 10.64453125 C-17.89041125 10.03429463 -16.63261071 9.42359253 -15.375 8.8125 C-14.44880859 8.37454102 -14.44880859 8.37454102 -13.50390625 7.92773438 C-10.22615581 6.32336179 -7.43564207 4.64999476 -4.6640625 2.26171875 C-2 0 -2 0 0 0 Z " fill="#EF2332" transform="translate(195,153)"/>
<path d="M0 0 C5.64060589 0.40290042 8.03471123 2.21914326 12 6 C13.26237731 8.52475462 13.09856404 10.31200466 13.0625 13.125 C13.05347656 14.03507812 13.04445312 14.94515625 13.03515625 15.8828125 C13.02355469 16.58148438 13.01195312 17.28015625 13 18 C12.34 18 11.68 18 11 18 C10.96003906 17.18015625 10.92007813 16.3603125 10.87890625 15.515625 C10.5505686 12.12685615 10.14102428 9.21367139 9 6 C6.21532811 3.80077101 3.43037168 2.81877184 0 2 C0 1.34 0 0.68 0 0 Z " fill="#F68860" transform="translate(178,29)"/>
<path d="M0 0 C0.66 0 1.32 0 2 0 C1.51999962 7.48138527 0.44933744 14.88637402 -2 22 C-2.66 22.33 -3.32 22.66 -4 23 C-3.4796084 18.61384223 -2.89689248 14.32618725 -2 10 C-1.82339844 9.11699219 -1.64679688 8.23398437 -1.46484375 7.32421875 C-0.9765625 4.8828125 -0.48828125 2.44140625 0 0 Z " fill="#EF2A34" transform="translate(125,44)"/>
<path d="M0 0 C0.66 0 1.32 0 2 0 C-0.44321501 7.55175547 -5.54280302 11.85764722 -12 16 C-12.66 16 -13.32 16 -14 16 C-12.83098391 12.49295173 -11.75953501 12.22444901 -8.7578125 10.3828125 C-5.76059743 8.02500332 -3.72239152 4.90964581 -1.515625 1.828125 C-1.01546875 1.22484375 -0.5153125 0.6215625 0 0 Z " fill="#F8835E" transform="translate(214,63)"/>
<path d="M0 0 C-0.3125 2.375 -0.3125 2.375 -1 5 C-1.99 5.66 -2.98 6.32 -4 7 C-5.5 5.75 -5.5 5.75 -7 4 C-7 2.68 -7 1.36 -7 0 C-4.3333581 -1.33332095 -2.83319697 -0.67102033 0 0 Z " fill="#EB2532" transform="translate(167,210)"/>
<path d="M0 0 C0.33 0 0.66 0 1 0 C1 6.27 1 12.54 1 19 C0.01 19 -0.98 19 -2 19 C-3.42944945 16.64561267 -4.08661261 15.51967567 -3.625 12.75 C-3.41875 12.1725 -3.2125 11.595 -3 11 C-2.34 11.66 -1.68 12.32 -1 13 C-0.67 8.71 -0.34 4.42 0 0 Z " fill="#7C7C7C" transform="translate(110,280)"/>
<path d="M0 0 C0 0.99 0 1.98 0 3 C-2.31160495 5.31160495 -4.63033477 6.56178763 -7.5 8.125 C-8.4796875 8.66382813 -9.459375 9.20265625 -10.46875 9.7578125 C-13 11 -13 11 -15 11 C-13.59980125 6.79940376 -10.63174123 5.80948475 -6.9375 3.8125 C-6.27427734 3.44447266 -5.61105469 3.07644531 -4.92773438 2.69726562 C-3.28972543 1.78987938 -1.64543779 0.89384427 0 0 Z " fill="#AC3473" transform="translate(101,136)"/>
<path d="M0 0 C0 0.66 0 1.32 0 2 C-2.43133054 3.63863397 -4.84771535 5.14921334 -7.375 6.625 C-8.07367188 7.04523438 -8.77234375 7.46546875 -9.4921875 7.8984375 C-14.72859172 11 -14.72859172 11 -17 11 C-15.60970863 6.82912589 -12.72156282 5.81791302 -9.0625 3.8125 C-8.41603516 3.44447266 -7.76957031 3.07644531 -7.10351562 2.69726562 C-2.28446776 0 -2.28446776 0 0 0 Z " fill="#B92B6A" transform="translate(120,143)"/>
<path d="M0 0 C0.33 0 0.66 0 1 0 C1.21824777 6.0018137 0.5056904 11.19233704 -1 17 C-1.66 17 -2.32 17 -3 17 C-4.29065057 13.1280483 -3.22324098 10.55767399 -2.0625 6.8125 C-1.76956055 5.83120117 -1.76956055 5.83120117 -1.47070312 4.83007812 C-0.98817437 3.21772593 -0.49509795 1.60853711 0 0 Z " fill="#A63677" transform="translate(78,119)"/>
<path d="M0 0 C0.99 0.33 1.98 0.66 3 1 C2.67 1.99 2.34 2.98 2 4 C1.34 4 0.68 4 0 4 C0 2.68 0 1.36 0 0 Z M-1 4 C-0.34 4.33 0.32 4.66 1 5 C0.03644647 14.41002278 0.03644647 14.41002278 -1 19 C-3.50356732 15.24464902 -2.9608592 14.13110586 -2.125 9.8125 C-1.92132813 8.72582031 -1.71765625 7.63914062 -1.5078125 6.51953125 C-1.34023437 5.68808594 -1.17265625 4.85664062 -1 4 Z " fill="#F23338" transform="translate(103,0)"/>
<path d="M0 0 C0 0.66 0 1.32 0 2 C-4.15626368 3.00926479 -8.04365094 3.10239579 -12.3125 3.0625 C-13.56675781 3.05347656 -14.82101563 3.04445312 -16.11328125 3.03515625 C-17.06589844 3.02355469 -18.01851562 3.01195312 -19 3 C-19 2.67 -19 2.34 -19 2 C-16.95928485 1.66089006 -14.91737379 1.32897296 -12.875 1 C-11.73804688 0.814375 -10.60109375 0.62875 -9.4296875 0.4375 C-6.23862398 0.03043951 -3.21182209 -0.07809902 0 0 Z " fill="#E6253C" transform="translate(160,141)"/>
<path d="M0 0 C-3.90480249 1.35862973 -7.7101776 0.89469712 -11.75 0.5625 C-12.44738281 0.51029297 -13.14476562 0.45808594 -13.86328125 0.40429688 C-15.57596203 0.27525928 -17.28805066 0.13840386 -19 0 C-19 -0.33 -19 -0.66 -19 -1 C-4.58823529 -3.05882353 -4.58823529 -3.05882353 0 0 Z " fill="#ED2934" transform="translate(170,98)"/>
<path d="M0 0 C0.66 0 1.32 0 2 0 C1.744398 1.93956814 1.46995354 3.87665989 1.1875 5.8125 C1.03667969 6.89144531 0.88585937 7.97039063 0.73046875 9.08203125 C-0.01612403 12.06440991 -0.62075684 13.14223479 -3 15 C-2.69052329 13.06201479 -2.37731166 11.12462574 -2.0625 9.1875 C-1.88847656 8.10855469 -1.71445313 7.02960937 -1.53515625 5.91796875 C-1 3 -1 3 0 0 Z " fill="#E92337" transform="translate(92,53)"/>
<path d="M0 0 C0.66 0.33 1.32 0.66 2 1 C-0.75 7.75 -0.75 7.75 -3 10 C-3.33 7.69 -3.66 5.38 -4 3 C-2.68 2.01 -1.36 1.02 0 0 Z " fill="#E72935" transform="translate(115,223)"/>
<path d="M0 0 C0.66 0 1.32 0 2 0 C1.34 4.29 0.68 8.58 0 13 C-0.66 13 -1.32 13 -2 13 C-1.85851011 11.3954444 -1.71164314 9.79136233 -1.5625 8.1875 C-1.48128906 7.29417969 -1.40007812 6.40085937 -1.31640625 5.48046875 C-1 3 -1 3 0 0 Z " fill="#CB2A57" transform="translate(85,86)"/>
<path d="M0 0 C0.66 0.33 1.32 0.66 2 1 C1.85831863 2.43791516 1.71148957 3.8753237 1.5625 5.3125 C1.48128906 6.11300781 1.40007812 6.91351563 1.31640625 7.73828125 C1 10 1 10 0 13 C-0.66 13 -1.32 13 -2 13 C-1.85769192 11.58297487 -1.71099254 10.1663904 -1.5625 8.75 C-1.48128906 7.96109375 -1.40007812 7.1721875 -1.31640625 6.359375 C-1.02365007 4.17635361 -0.57935581 2.1226818 0 0 Z " fill="#F2373B" transform="translate(128,30)"/>
<path d="M0 0 C0.33 1.32 0.66 2.64 1 4 C2.32 4.33 3.64 4.66 5 5 C3.68 5.33 2.36 5.66 1 6 C1 9.3 1 12.6 1 16 C0.67 16 0.34 16 0 16 C0 12.37 0 8.74 0 5 C-0.66 4.67 -1.32 4.34 -2 4 C-1.34 4 -0.68 4 0 4 C0 2.68 0 1.36 0 0 Z " fill="#7D7D7D" transform="translate(294,281)"/>
<path d="M0 0 C2.64 0 5.28 0 8 0 C8 0.99 8 1.98 8 3 C5.36 3 2.72 3 0 3 C0 2.01 0 1.02 0 0 Z " fill="#787777" transform="translate(218,290)"/>
<path d="M0 0 C-0.28875 0.556875 -0.5775 1.11375 -0.875 1.6875 C-2.0413253 4.08494645 -3.0339881 6.51596939 -4 9 C-7 5.25 -7 5.25 -7 3 C-2.61538462 0 -2.61538462 0 0 0 Z " fill="#F33D3D" transform="translate(188,102)"/>
<path d="M0 0 C0.33 0 0.66 0 1 0 C2.20568053 4.67201205 2.09382426 9.21496292 2 14 C-0.81340521 11.18659479 -0.669115 8.90444304 -1 5 C-0.5625 2.0625 -0.5625 2.0625 0 0 Z " fill="#F59F6B" transform="translate(222,26)"/>
<path d="M0 0 C0.66 0.66 1.32 1.32 2 2 C1.9765625 4.3828125 1.9765625 4.3828125 1.625 7.125 C1.51414063 8.03507812 1.40328125 8.94515625 1.2890625 9.8828125 C1.19367188 10.58148438 1.09828125 11.28015625 1 12 C0.34 11.67 -0.32 11.34 -1 11 C-0.67 7.37 -0.34 3.74 0 0 Z " fill="#FBB073" transform="translate(221,39)"/>
<path d="M0 0 C0.99 0 1.98 0 3 0 C3 1.32 3 2.64 3 4 C4.32 4.33 5.64 4.66 7 5 C7 5.66 7 6.32 7 7 C5.68 7 4.36 7 3 7 C2.67 5.35 2.34 3.7 2 2 C1.34 2 0.68 2 0 2 C0 1.34 0 0.68 0 0 Z " fill="#7E6D6E" transform="translate(131,280)"/>
<path d="M0 0 C0 0.99 0 1.98 0 3 C-5.25714286 7 -5.25714286 7 -8 7 C-6.5361389 2.60841671 -4.02168662 2.12052567 0 0 Z " fill="#F33A3C" transform="translate(178,90)"/>
<path d="M0 0 C0.66 0 1.32 0 2 0 C2.25 2.3125 2.25 2.3125 2 5 C-0.04424538 6.97610386 -1.1176825 8 -4 8 C-3.67 7.01 -3.34 6.02 -3 5 C-2.34 4.67 -1.68 4.34 -1 4 C-0.34786708 1.97536745 -0.34786708 1.97536745 0 0 Z " fill="#C72A5C" transform="translate(107,129)"/>
<path d="M0 0 C2.475 0.99 2.475 0.99 5 2 C3.6875 4 3.6875 4 2 6 C1.01 6 0.02 6 -1 6 C-0.67 4.02 -0.34 2.04 0 0 Z " fill="#A23D74" transform="translate(71,151)"/>
<path d="M0 0 C0.33 0.99 0.66 1.98 1 3 C-2.96 4.98 -2.96 4.98 -7 7 C-4.91100178 2.82200357 -3.94455388 2.07608099 0 0 Z " fill="#F65D4C" transform="translate(206,90)"/>
<path d="M0 0 C-1.12073862 0.83905565 -2.24674547 1.67107831 -3.375 2.5 C-4.00148437 2.9640625 -4.62796875 3.428125 -5.2734375 3.90625 C-7 5 -7 5 -9 5 C-8 2 -8 2 -5.625 0.25 C-3 -1 -3 -1 0 0 Z " fill="#F17357" transform="translate(209,74)"/>
<path d="M0 0 C0.33 0 0.66 0 1 0 C1.26218749 3.14624993 1.24754367 4.61837017 -0.5 7.3125 C-1.2425 8.1478125 -1.2425 8.1478125 -2 9 C-2.66 8.67 -3.32 8.34 -4 8 C-2.68 5.36 -1.36 2.72 0 0 Z " fill="#F23E3E" transform="translate(209,131)"/>
<path d="M0 0 C0.99 0.33 1.98 0.66 3 1 C2.67 2.32 2.34 3.64 2 5 C1.01 4.67 0.02 4.34 -1 4 C-0.67 2.68 -0.34 1.36 0 0 Z " fill="#757374" transform="translate(140,278)"/>
<path d="M0 0 C0.99 0.33 1.98 0.66 3 1 C2.67 2.32 2.34 3.64 2 5 C1.01 4.67 0.02 4.34 -1 4 C-0.67 2.68 -0.34 1.36 0 0 Z " fill="#757374" transform="translate(70,278)"/>
</svg>
