<?xml version="1.0" encoding="UTF-8"?>
<svg version="1.1" xmlns="http://www.w3.org/2000/svg" width="512" height="512">
<path d="M0 0 C1.83443063 -0.00761181 1.83443063 -0.00761181 3.70592046 -0.0153774 C5.07541986 -0.01597913 6.44491932 -0.01647819 7.81441879 -0.01688576 C9.25967488 -0.02089892 10.70492984 -0.02533689 12.15018344 -0.03016531 C16.13603266 -0.04215298 20.12186976 -0.04778433 24.10773349 -0.05234647 C28.40097651 -0.05829424 32.69420498 -0.06990611 36.9874382 -0.08063698 C47.3626906 -0.10517948 57.73794783 -0.1197906 68.11322033 -0.13269705 C71.04231143 -0.13640755 73.97140205 -0.1403809 76.90049267 -0.14444971 C95.07915971 -0.16968418 113.25782748 -0.19174322 131.43650818 -0.20417786 C135.64888385 -0.20710769 139.86125949 -0.21006933 144.0736351 -0.21308327 C145.12063602 -0.21382932 146.16763694 -0.21457537 147.24636516 -0.21534403 C164.21363452 -0.22800226 181.18079919 -0.26123055 198.14801958 -0.3028851 C215.55708363 -0.345275 232.96609404 -0.36886946 250.37520957 -0.37409842 C260.15419395 -0.37751583 269.93301473 -0.38930978 279.71194839 -0.42220116 C288.03887753 -0.45016238 296.36560954 -0.46121831 304.69258198 -0.4500057 C308.94250595 -0.44480898 313.19201686 -0.44777106 317.44188118 -0.47247124 C321.3319375 -0.49489186 325.22128233 -0.49428064 329.11135051 -0.47526737 C330.51920407 -0.47245718 331.92710514 -0.4781224 333.33488205 -0.4930803 C345.16365444 -0.61108661 345.16365444 -0.61108661 349.04105377 2.4250145 C352.31543864 6.37540314 353.53955104 8.96785792 353.53506279 14.11139107 C353.53904489 15.11908979 353.54302698 16.12678852 353.54712975 17.16502357 C353.54130407 18.27007436 353.53547838 19.37512516 353.52947617 20.51366234 C353.53203944 22.27675818 353.53203944 22.27675818 353.5346545 24.07547212 C353.53738178 27.33874543 353.53112133 30.60186035 353.52109838 33.86511493 C353.51246941 37.38382321 353.51538364 40.90252397 353.51690292 44.42123985 C353.51795213 50.51789924 353.51167185 56.61451585 353.50042725 62.71116447 C353.48417999 71.52591173 353.47896503 80.34063827 353.47645126 89.15539888 C353.47207294 103.45641135 353.45876013 117.75740102 353.43984604 132.05840111 C353.42149078 145.95130359 353.40733254 159.84419989 353.39883041 173.73711205 C353.39830497 174.59332888 353.39777952 175.44954572 353.39723815 176.33170852 C353.39462809 180.62705439 353.39210067 184.92240031 353.38961434 189.21774626 C353.36887758 224.85751856 353.33364832 260.49726437 353.28896713 296.13701439 C354.4639476 295.85696556 355.63892807 295.57691673 356.84951401 295.28838158 C358.40222984 294.9201393 359.95496524 294.55197957 361.50771713 294.18388939 C362.66738998 293.90714378 362.66738998 293.90714378 363.85049057 293.62480736 C369.00438979 292.40530872 373.98272388 291.33915699 379.28896713 291.13701439 C381.0949437 291.05967064 381.0949437 291.05967064 382.93740463 290.98076439 C411.41955309 290.16486951 438.93153249 299.01040768 460.28896713 318.13701439 C460.91802963 318.63588158 461.54709213 319.13474876 462.19521713 319.64873314 C481.2926999 334.79650924 493.94697276 361.38691011 497.28896713 385.13701439 C499.04414595 420.1655418 499.04414595 420.1655418 493.28896713 436.13701439 C493.04759018 436.82956322 492.80621323 437.52211205 492.55752182 438.2356472 C487.18483629 453.39405431 478.93550519 466.08759315 468.28896713 478.13701439 C467.67795151 478.83181908 467.06693588 479.52662376 466.43740463 480.24248314 C448.13593 499.75107631 420.49820066 511.47550828 394.02334213 512.42217064 C381.25454629 512.67852756 369.05393786 512.38684617 356.82412338 508.31670189 C354.53938933 507.51145596 354.53938933 507.51145596 351.28896713 507.13701439 C350.51681334 507.93846791 349.74465956 508.73992144 348.94910717 509.56566143 C344.04221795 513.8832198 337.45508841 512.82872845 331.28922653 512.77866173 C329.84122113 512.78514092 328.3932241 512.79379572 326.9452433 512.80443603 C322.97017283 512.82725076 318.99568765 512.81886534 315.02059734 512.80529678 C310.73213564 512.79604695 306.4437906 512.81552914 302.15536118 512.83127403 C293.75562135 512.85737438 285.35609545 512.85626939 276.95633049 512.84523585 C270.1296629 512.83668038 263.30305726 512.83750587 256.47638893 512.84503174 C255.50507114 512.84608663 254.53375334 512.84714151 253.53300167 512.84822837 C251.55982398 512.85039928 249.5866463 512.85258605 247.61346864 512.85478852 C229.10639993 512.87422326 210.59945128 512.86221588 192.09239238 512.84000257 C176.21178684 512.82175276 160.33141379 512.83265293 144.45083237 512.86430931 C126.01189602 512.9010634 107.5731049 512.91809658 89.13413185 512.90489703 C87.16787495 512.90355593 85.20161804 512.90224695 83.2353611 512.90097046 C82.26791331 512.90033979 81.30046551 512.89970913 80.30370112 512.89905935 C73.48557484 512.89603094 66.66755802 512.90729757 59.84945488 512.92422104 C51.53978844 512.94453588 43.23045012 512.94369197 34.92080087 512.91558864 C30.68081104 512.90180586 26.4413942 512.89765326 22.20142555 512.9195385 C18.31934388 512.93931181 14.43834049 512.93135204 10.55633353 512.90134416 C9.15263489 512.89533955 7.74884874 512.89944029 6.34522028 512.91470739 C-5.4381708 513.03352472 -5.4381708 513.03352472 -10.03145313 509.21481609 C-13.98988058 505.13046599 -13.85719225 501.65624168 -13.85084057 496.1642561 C-13.85379199 495.32661224 -13.85674341 494.48896837 -13.85978428 493.62594137 C-13.86852141 490.7884619 -13.87006009 487.95102297 -13.87166214 485.11353111 C-13.87638996 483.07089188 -13.88154044 481.02825358 -13.88707978 478.98561639 C-13.90102508 473.34847092 -13.90858052 467.71133193 -13.91505277 462.07417357 C-13.92141233 457.24505008 -13.93148401 452.4159373 -13.94161343 447.58682046 C-13.97497823 431.67365133 -13.99650611 415.76047657 -14.01481327 399.84728482 C-14.01957988 395.70569933 -14.02458875 391.56411416 -14.0296185 387.42252898 C-14.06066307 361.72313416 -14.08728598 336.02373676 -14.10403728 310.32432842 C-14.10797464 304.36841706 -14.11198646 298.41250574 -14.11606216 292.45659447 C-14.11656383 291.71663358 -14.1170655 290.97667269 -14.11758237 290.21428874 C-14.13400275 266.21963512 -14.17246179 242.22508344 -14.22334927 218.23047997 C-14.27555225 193.57069718 -14.30834914 168.91096868 -14.31561482 144.25112951 C-14.31664344 140.76927075 -14.31787977 137.28741209 -14.31923485 133.80555344 C-14.31949289 133.12027576 -14.31975092 132.43499808 -14.32001678 131.72895442 C-14.32471478 120.69326605 -14.34966214 109.65771186 -14.38198628 98.62207374 C-14.4139962 87.53212005 -14.42350726 76.44228421 -14.41155433 65.35228119 C-14.40571229 59.34227281 -14.40970039 53.33268588 -14.43972397 47.32274055 C-14.46697333 41.82337806 -14.466673 36.3247387 -14.44421352 30.82536092 C-14.44097604 28.83337408 -14.44794307 26.84133979 -14.46601074 24.84943227 C-14.4890584 22.14506185 -14.47523078 19.44329118 -14.45211315 16.73897839 C-14.46758939 15.96218384 -14.48306562 15.18538929 -14.49901083 14.38505551 C-14.39795106 9.04378701 -12.83822868 6.34055684 -9.19279176 2.46350784 C-6.21847752 -0.19914422 -3.88949763 0.00853386 0 0 Z " fill="#EAEAEF" transform="translate(14.71103286743164,-0.13701438903808594)"/>
<path d="M0 0 C0.68520218 -0.00554901 1.37040436 -0.01109802 2.07637024 -0.01681519 C4.33093227 -0.02858177 6.58347061 -0.00437087 8.83789062 0.02148438 C10.41060291 0.0231964 11.98331805 0.02312886 13.55603027 0.0213623 C16.84801634 0.02301383 20.13932 0.04167978 23.43115234 0.07324219 C27.64461323 0.11291983 31.85718089 0.11728651 36.07079315 0.10977936 C39.31711975 0.1067055 42.56324664 0.11884487 45.80952454 0.13591003 C47.36280565 0.14292664 48.9161094 0.14606619 50.46940613 0.1452179 C52.64277825 0.14702165 54.81509275 0.16845048 56.98828125 0.1953125 C58.22340454 0.20373169 59.45852783 0.21215088 60.7310791 0.2208252 C65.2493201 0.76694905 67.8192757 2.44036945 70.99414062 5.61523438 C71.43164062 8.42773438 71.43164062 8.42773438 70.99414062 11.61523438 C68.40302186 14.90751838 66.94558053 16.44801858 62.7644043 17.18286133 C61.57564697 17.15667725 60.38688965 17.13049316 59.16210938 17.10351562 C57.99703857 17.09102783 56.83196777 17.07854004 55.6315918 17.06567383 C53.42886597 16.9973938 53.42886597 16.9973938 51.18164062 16.92773438 C46.49976563 16.82460938 41.81789062 16.72148438 36.99414062 16.61523438 C36.99414062 26.51523438 36.99414062 36.41523437 36.99414062 46.61523438 C43.92414063 47.11023438 43.92414063 47.11023438 50.99414062 47.61523438 C54.01941466 48.10117213 56.90308077 48.60607975 59.86914062 49.30273438 C60.62179199 49.47643555 61.37444336 49.65013672 62.14990234 49.82910156 C86.10286135 55.62522542 107.26430259 67.59915794 124.99414062 84.61523438 C125.88746094 85.44539063 126.78078125 86.27554688 127.70117188 87.13085938 C145.01651655 103.69546883 156.21413278 124.83287922 162.74414062 147.74023438 C162.94289795 148.43149414 163.14165527 149.12275391 163.34643555 149.83496094 C167.19855004 164.04138748 167.24381028 177.81668572 167.11914062 192.42773438 C167.10908841 194.48827689 167.09996653 196.54882416 167.09179688 198.609375 C167.06996644 203.61144755 167.03556066 208.61328725 166.99414062 213.61523438 C167.94498535 213.91308838 168.89583008 214.21094238 169.87548828 214.51782227 C173.95704392 215.95406718 175.44363203 217.7191275 177.85742188 221.19726562 C180.44027211 226.69136972 179.74050221 232.37614961 177.86914062 237.99023438 C174.77540064 242.32147036 170.95207971 245.55270522 165.99414062 247.61523438 C163.75606799 247.86823404 163.75606799 247.86823404 161.26075363 247.87250328 C160.30675604 247.87895217 159.35275844 247.88540107 158.36985183 247.89204538 C157.32473127 247.88894817 156.27961071 247.88585097 155.20281982 247.88265991 C154.09023686 247.88719103 152.97765389 247.89172214 151.83135629 247.89639056 C148.08967751 247.9090876 144.3481433 247.90741075 140.60644531 247.90576172 C137.92920893 247.9117437 135.25198402 247.91849157 132.57475281 247.92611694 C126.0487374 247.9427347 119.52275812 247.94822687 112.99672332 247.9493417 C107.69129431 247.95029194 102.38587721 247.95440106 97.08045197 247.96074295 C82.03745856 247.9783586 66.99449369 247.98758148 51.9514899 247.986082 C51.1404035 247.98600209 50.32931711 247.98592218 49.49365234 247.98583984 C48.27553633 247.9857172 48.27553633 247.9857172 47.03281191 247.98559208 C33.87580691 247.98477941 20.71891645 248.0039114 7.56194457 248.03211658 C-5.94865712 248.06085114 -19.45920297 248.07465651 -32.969836 248.07292902 C-40.55453753 248.07226525 -48.13911903 248.07775182 -55.72379303 248.09928513 C-62.18266668 248.11750464 -68.64136591 248.12183814 -75.10025415 248.10826628 C-78.39449725 248.10173994 -81.68833665 248.10378415 -84.98256111 248.11897278 C-88.5575413 248.13438821 -92.13164298 248.1251402 -95.706604 248.10971069 C-96.74280168 248.11999782 -97.77899935 248.13028495 -98.84659696 248.1408838 C-105.07244115 248.08150899 -109.81861462 247.20168114 -115.00585938 243.61523438 C-119.15847176 239.35334272 -120.81049171 235.63403363 -121.38085938 229.74023438 C-121.22252895 224.48564337 -119.1201772 220.80131756 -115.50976562 217.06835938 C-112.88475152 214.73792291 -111.59229167 213.61523438 -108.00585938 213.61523438 C-108.02680664 212.32649414 -108.04775391 211.03775391 -108.06933594 209.70996094 C-108.14295046 204.82694063 -108.18809039 199.94396674 -108.22558594 195.06054688 C-108.24542978 192.96606135 -108.27251373 190.87162911 -108.30761719 188.77734375 C-108.90299216 152.2843599 -97.62928432 120.54197772 -74.00585938 92.61523438 C-73.1513258 91.53219043 -72.29708283 90.44891701 -71.44335938 89.36523438 C-64.66478261 81.7176093 -56.20650434 75.65580862 -48.00585938 69.61523438 C-47.16667969 68.99519531 -46.3275 68.37515625 -45.46289062 67.73632812 C-25.64352983 54.15581222 -1.70496543 47.61523438 21.99414062 47.61523438 C21.99414062 37.38523437 21.99414062 27.15523437 21.99414062 16.61523438 C12.67467679 16.81260784 12.67467679 16.81260784 3.35668945 17.06567383 C2.19161865 17.07816162 1.02654785 17.09064941 -0.17382812 17.10351562 C-1.95696411 17.14279175 -1.95696411 17.14279175 -3.77612305 17.18286133 C-7.95355146 16.44867726 -9.4024205 14.89037311 -12.00585938 11.61523438 C-12.63085938 8.61523438 -12.63085938 8.61523438 -12.00585938 5.61523438 C-8.28605961 0.92555944 -5.92034048 -0.0098476 0 0 Z " fill="#D1D1D6" transform="translate(155.005859375,44.384765625)"/>
<path d="M0 0 C1.63276735 1.42867143 3.25879886 2.86511439 4.875 4.3125 C5.5040625 4.81136719 6.133125 5.31023437 6.78125 5.82421875 C25.87873277 20.97199485 38.53300562 47.56239572 41.875 71.3125 C43.63017882 106.34102741 43.63017882 106.34102741 37.875 122.3125 C37.63362305 123.00504883 37.39224609 123.69759766 37.14355469 124.41113281 C31.77086916 139.56953992 23.52153806 152.26307876 12.875 164.3125 C12.26398438 165.00730469 11.65296875 165.70210937 11.0234375 166.41796875 C-7.27803713 185.92656192 -34.91576647 197.65099389 -61.390625 198.59765625 C-73.27105481 198.83886576 -84.65190713 198.6724772 -96.125 195.3125 C-97.78015625 194.83683594 -97.78015625 194.83683594 -99.46875 194.3515625 C-114.46331064 189.50240413 -128.46483253 181.90900331 -140.125 171.3125 C-140.80175781 170.77625 -141.47851562 170.24 -142.17578125 169.6875 C-162.36619172 153.50280223 -174.86850898 125.4199048 -178.125 100.3125 C-178.36256992 95.95327524 -178.36148055 91.61442453 -178.3125 87.25 C-178.31185547 86.12400391 -178.31121094 84.99800781 -178.31054688 83.83789062 C-178.2659337 75.5943674 -178.2659337 75.5943674 -177.125 73.3125 C-177.0425 72.11625 -176.96 70.92 -176.875 69.6875 C-174.4061177 46.6568815 -160.78000102 25.57682741 -145.125 9.3125 C-144.26648438 8.34183594 -144.26648438 8.34183594 -143.390625 7.3515625 C-107.96794566 -31.54034833 -39.54907125 -32.0930988 0 0 Z " fill="#F34444" transform="translate(470.125,313.6875)"/>
<path d="M0 0 C0.72963959 0.00141495 1.45927917 0.0028299 2.21102905 0.00428772 C4.54437335 0.00989094 6.87762214 0.0224439 9.2109375 0.03515625 C10.79166528 0.04017084 12.37239457 0.04473382 13.953125 0.04882812 C17.83076604 0.05986141 21.70833557 0.07712814 25.5859375 0.09765625 C24.8434375 0.63390625 24.1009375 1.17015625 23.3359375 1.72265625 C19.10589064 5.37587854 16.81043269 8.3546032 16.08454084 13.99066162 C16.06354133 15.49460452 16.06432579 16.99895088 16.08257294 18.50292969 C16.07675917 19.33873503 16.07094541 20.17454037 16.06495547 21.03567314 C16.05032964 23.84308476 16.06425275 26.64962565 16.07800293 29.45703125 C16.07339504 31.48733976 16.06704289 33.51764494 16.05909395 35.54794312 C16.04236218 41.13246814 16.05066457 46.71672051 16.06303883 52.30124664 C16.07207121 58.32178109 16.05812859 64.34226792 16.04711914 70.36279297 C16.03033976 81.47703252 16.03182295 92.59119687 16.04276501 103.70543694 C16.05282359 113.97257928 16.05545575 124.23968968 16.05067444 134.50683594 C16.0503689 135.18763537 16.05006336 135.8684348 16.04974856 136.56986451 C16.04850322 139.33338727 16.04722963 142.09691002 16.0459095 144.86043274 C16.03367096 170.78928818 16.04477137 196.71808812 16.06629709 222.64693499 C16.08527981 245.68783014 16.08358131 268.72863687 16.06445312 291.76953125 C16.04303888 317.65067909 16.03453888 343.53177788 16.04690218 369.41293335 C16.04818507 372.17144774 16.04943643 374.92996215 16.05067444 377.68847656 C16.05099075 378.36770306 16.05130706 379.04692955 16.05163295 379.74673867 C16.05618462 390.00793037 16.05085845 400.26908664 16.04075623 410.53027344 C16.02932793 422.19663493 16.0325455 433.86291227 16.0538792 445.52926445 C16.06440927 451.48439335 16.06847803 457.43934255 16.05528259 463.39447021 C16.04339355 468.84231595 16.04986376 474.28981482 16.0711928 479.73762894 C16.07567366 481.71196778 16.07335952 483.68633573 16.06368965 485.66065598 C16.05157748 488.33831862 16.06394787 491.01478335 16.08257294 493.69238281 C16.07320827 494.4642436 16.06384361 495.23610439 16.05419517 496.0313549 C16.12638156 501.20119799 17.33297086 504.11110053 20.5859375 508.09765625 C23.1950762 510.42043041 23.1950762 510.42043041 25.5859375 512.09765625 C21.01454732 512.24681062 16.4445952 512.35524141 11.87133789 512.42724609 C10.31835233 512.457282 8.76553447 512.49812525 7.21313477 512.55029297 C-7.35707442 513.02739131 -7.35707442 513.02739131 -11.91015625 509.19921875 C-15.58652597 504.64533801 -15.56041814 501.78658049 -15.5538702 496.12489796 C-15.55682162 495.2872541 -15.55977305 494.44961024 -15.56281391 493.58658323 C-15.57155105 490.74910376 -15.57308972 487.91166483 -15.57469177 485.07417297 C-15.57941959 483.03153374 -15.58457007 480.98889544 -15.59010941 478.94625825 C-15.60405471 473.30911278 -15.61161015 467.67197379 -15.6180824 462.03481543 C-15.62444197 457.20569194 -15.63451364 452.37657916 -15.64464306 447.54746232 C-15.67800786 431.6342932 -15.69953574 415.72111843 -15.71784291 399.80792668 C-15.72260951 395.6663412 -15.72761838 391.52475602 -15.73264813 387.38317084 C-15.7636927 361.68377602 -15.79031562 335.98437862 -15.80706692 310.28497028 C-15.81100428 304.32905892 -15.81501609 298.3731476 -15.8190918 292.41723633 C-15.81959346 291.67727544 -15.82009513 290.93731455 -15.820612 290.1749306 C-15.83703238 266.18027698 -15.87549143 242.1857253 -15.9263789 218.19112183 C-15.97858189 193.53133904 -16.01137877 168.87161054 -16.01864445 144.21177137 C-16.01967308 140.72991261 -16.0209094 137.24805395 -16.02226448 133.7661953 C-16.02252252 133.08091762 -16.02278056 132.39563994 -16.02304641 131.68959628 C-16.02774441 120.65390791 -16.05269177 109.61835372 -16.08501591 98.5827156 C-16.11702583 87.49276191 -16.1265369 76.40292607 -16.11458396 65.31292305 C-16.10874193 59.30291467 -16.11273003 53.29332774 -16.1427536 47.28338242 C-16.17000296 41.78401992 -16.16970263 36.28538056 -16.14724315 30.78600278 C-16.14400567 28.79401594 -16.15097271 26.80198166 -16.16904037 24.81007413 C-16.19208803 22.10570371 -16.17826041 19.40393304 -16.15514278 16.69962025 C-16.17061902 15.9228257 -16.18609525 15.14603115 -16.20204046 14.34569737 C-16.1009807 9.00442887 -14.54125831 6.3011987 -10.8958214 2.4241497 C-7.59328845 -0.53232881 -4.19225182 -0.03041046 0 0 Z " fill="#D2D2D7" transform="translate(16.4140625,-0.09765625)"/>
<path d="M0 0 C0.95897334 -0.00507454 1.91794668 -0.01014909 2.90597981 -0.0153774 C3.96179511 -0.01587516 5.01761041 -0.01637292 6.10542011 -0.01688576 C7.78526358 -0.02345914 7.78526358 -0.02345914 9.49904329 -0.03016531 C13.27142711 -0.04357611 17.04378756 -0.0497373 20.81618977 -0.0558567 C23.51297909 -0.06375584 26.20976539 -0.07201949 28.90655231 -0.08063698 C37.01367072 -0.10515837 45.12079526 -0.11978766 53.22793934 -0.13269705 C55.51777775 -0.13640914 57.80761555 -0.14038236 60.09745336 -0.14444971 C74.31728464 -0.16968617 88.5371169 -0.1917391 102.75696564 -0.20417786 C106.05063283 -0.20710755 109.34429999 -0.21006921 112.63796711 -0.21308327 C113.45659118 -0.21382932 114.27521526 -0.21457537 115.11864612 -0.21534403 C128.3791955 -0.22799705 141.63961077 -0.26121956 154.90009745 -0.3028851 C168.51462136 -0.34531236 182.12907663 -0.36887379 195.74366647 -0.37409842 C203.38767008 -0.37751163 211.03146411 -0.38925597 218.67540264 -0.42220116 C225.18554983 -0.45021377 231.69544448 -0.46119579 238.20564725 -0.4500057 C241.52639172 -0.44482183 244.8461794 -0.4504167 248.16691875 -0.47247124 C251.77055914 -0.49510228 255.37286718 -0.48689395 258.97651386 -0.47098732 C260.02117555 -0.48486941 261.06583724 -0.49875149 262.14215535 -0.51305425 C268.8102419 -0.44052982 273.19480675 0.83272452 278.35842609 5.13701439 C281.88341505 8.83825279 282.62753952 11.66624267 282.79592609 16.63701439 C282.57610909 21.87007725 281.78322987 25.70541845 277.96389484 29.53545189 C273.68941125 33.27968309 270.31463964 35.38454894 264.6250391 35.39428329 C263.67104151 35.40073219 262.71704391 35.40718108 261.7341373 35.41382539 C260.68901674 35.41072819 259.64389617 35.40763098 258.56710529 35.40443993 C257.45452233 35.40897104 256.34193936 35.41350215 255.19564176 35.41817057 C251.45396298 35.43086762 247.71242877 35.42919076 243.97073078 35.42754173 C241.2934944 35.43352372 238.61626949 35.44027159 235.93903828 35.44789696 C229.41302287 35.46451472 222.88704359 35.47000688 216.36100879 35.47112171 C211.05557978 35.47207196 205.75016268 35.47618108 200.44473743 35.48252296 C185.40174403 35.50013862 170.35877916 35.5093615 155.31577536 35.50786202 C154.50468897 35.5077821 153.69360258 35.50770219 152.85793781 35.50761986 C151.6398218 35.50749722 151.6398218 35.50749722 150.39709738 35.5073721 C137.24009238 35.50655943 124.08320192 35.52569142 110.92623004 35.55389659 C97.41562835 35.58263116 83.9050825 35.59643653 70.39444947 35.59470904 C62.80974794 35.59404526 55.22516644 35.59953183 47.64049244 35.62106514 C41.18161879 35.63928466 34.72291956 35.64361815 28.26403132 35.63004629 C24.96978822 35.62351996 21.67594882 35.62556417 18.38172436 35.64075279 C14.80674417 35.65616822 11.23264249 35.64692021 7.65768147 35.63149071 C6.62148379 35.64177783 5.58528612 35.65206496 4.51768851 35.66266382 C-1.70815568 35.603289 -6.45432915 34.72346115 -11.64157391 31.13701439 C-15.79418629 26.87512274 -17.44620624 23.15581364 -18.01657391 17.26201439 C-17.85903313 12.03362972 -15.78827774 8.30613811 -12.14548016 4.62529564 C-8.16157749 1.15800878 -5.18375334 0.01455759 0 0 Z " fill="#7E8388" transform="translate(51.641573905944824,256.8629856109619)"/>
<path d="M0 0 C0.68520218 -0.00554901 1.37040436 -0.01109802 2.07637024 -0.01681519 C4.33093227 -0.02858177 6.58347061 -0.00437087 8.83789062 0.02148438 C10.41060291 0.0231964 11.98331805 0.02312886 13.55603027 0.0213623 C16.84801634 0.02301383 20.13932 0.04167978 23.43115234 0.07324219 C27.64461323 0.11291983 31.85718089 0.11728651 36.07079315 0.10977936 C39.31711975 0.1067055 42.56324664 0.11884487 45.80952454 0.13591003 C47.36280565 0.14292664 48.9161094 0.14606619 50.46940613 0.1452179 C52.64277825 0.14702165 54.81509275 0.16845048 56.98828125 0.1953125 C58.22340454 0.20373169 59.45852783 0.21215088 60.7310791 0.2208252 C65.2493201 0.76694905 67.8192757 2.44036945 70.99414062 5.61523438 C71.43164062 8.42773438 71.43164062 8.42773438 70.99414062 11.61523438 C68.40302186 14.90751838 66.94558053 16.44801858 62.7644043 17.18286133 C61.57564697 17.15667725 60.38688965 17.13049316 59.16210938 17.10351562 C57.99703857 17.09102783 56.83196777 17.07854004 55.6315918 17.06567383 C53.42886597 16.9973938 53.42886597 16.9973938 51.18164062 16.92773438 C46.49976563 16.82460938 41.81789062 16.72148438 36.99414062 16.61523438 C36.99414062 26.51523438 36.99414062 36.41523437 36.99414062 46.61523438 C39.96414062 47.11023438 39.96414062 47.11023438 42.99414062 47.61523438 C39.28997331 49.7975345 35.33418347 50.49221434 31.18164062 51.36523438 C6.77875657 56.86370472 -13.94089763 69.59662476 -32.00585938 86.61523438 C-32.66972656 87.21464844 -33.33359375 87.8140625 -34.01757812 88.43164062 C-61.78228394 114.50681059 -71.23794897 151.44263394 -72.41712952 188.12217712 C-72.66250223 196.28561165 -72.82305023 204.44975907 -73.00585938 212.61523438 C-84.55585937 212.61523438 -96.10585937 212.61523438 -108.00585938 212.61523438 C-108.09883309 206.57194296 -108.17811191 200.5312361 -108.22558594 194.48779297 C-108.24542191 192.44180797 -108.27249935 190.39587742 -108.30761719 188.35009766 C-108.91398527 152.0571844 -97.48003775 120.36554392 -74.00585938 92.61523438 C-73.1513258 91.53219043 -72.29708283 90.44891701 -71.44335938 89.36523438 C-64.66478261 81.7176093 -56.20650434 75.65580862 -48.00585938 69.61523438 C-46.74708984 68.68517578 -46.74708984 68.68517578 -45.46289062 67.73632812 C-25.64352983 54.15581222 -1.70496543 47.61523438 21.99414062 47.61523438 C21.99414062 37.38523437 21.99414062 27.15523437 21.99414062 16.61523438 C12.67467679 16.81260784 12.67467679 16.81260784 3.35668945 17.06567383 C2.19161865 17.07816162 1.02654785 17.09064941 -0.17382812 17.10351562 C-1.95696411 17.14279175 -1.95696411 17.14279175 -3.77612305 17.18286133 C-7.95355146 16.44867726 -9.4024205 14.89037311 -12.00585938 11.61523438 C-12.63085938 8.61523438 -12.63085938 8.61523438 -12.00585938 5.61523438 C-8.28605961 0.92555944 -5.92034048 -0.0098476 0 0 Z " fill="#B9B9BE" transform="translate(155.005859375,44.384765625)"/>
<path d="M0 0 C5.93167457 2.07847463 9.47602249 4.9301991 13.80859375 9.41796875 C14.42017838 10.03521317 15.031763 10.65245758 15.66188049 11.28840637 C17.59675235 13.24551618 19.51718069 15.2161199 21.4375 17.1875 C22.75362462 18.52370576 24.07067312 19.85900219 25.38867188 21.19335938 C28.60323043 24.4518182 31.80491696 27.72244683 35 31 C39.03161367 29.39929121 41.66530411 26.5399105 44.61328125 23.4765625 C45.70755668 22.36185585 46.80196186 21.24727654 47.89648438 20.1328125 C49.60382431 18.38212166 51.30859769 16.62902631 53.01049805 14.87304688 C54.66312141 13.17175347 56.32516602 11.48009206 57.98828125 9.7890625 C58.48644852 9.26913727 58.98461578 8.74921204 59.49787903 8.21353149 C63.37992542 4.27822942 67.69949029 0.73666913 73.22265625 -0.49609375 C78.54982911 -0.32643856 82.62066947 0.58851636 86.4453125 4.46484375 C90.10775739 8.7446722 91.10743764 11.12891598 91.328125 16.734375 C90.38488532 23.24722038 86.08476851 27.26810922 81.546875 31.5703125 C80.27580392 32.8083497 79.00497766 34.0466383 77.734375 35.28515625 C75.73470144 37.21623291 73.73114903 39.14303827 71.72265625 41.06494141 C69.77837748 42.93105108 67.84953926 44.81206781 65.921875 46.6953125 C65.31365906 47.26831085 64.70544312 47.8413092 64.07879639 48.43167114 C62.20581761 50.21245883 62.20581761 50.21245883 60 53 C60.43644855 57.59771507 63.73053697 60.05495062 66.8984375 63.0859375 C67.48920074 63.66534088 68.07996399 64.24474426 68.68862915 64.84170532 C71.21231241 67.3164424 73.75324523 69.7731895 76.29296875 72.23144531 C78.14684618 74.03085315 79.99150511 75.83935744 81.8359375 77.6484375 C82.40790863 78.19551361 82.97987976 78.74258972 83.56918335 79.3062439 C88.00308199 83.6583366 90.68384439 87.54979404 91.5 93.875 C91.29312641 98.77414267 89.16435781 102.34881791 86 106 C81.72359596 109.18244022 77.72231632 109.3720597 72.5625 109.49609375 C66.32085757 108.287727 61.79881996 103.07328239 57.5078125 98.703125 C56.91700897 98.10949158 56.32620544 97.51585815 55.71749878 96.90423584 C53.84854618 95.02417013 51.98670459 93.1372404 50.125 91.25 C48.85202757 89.96698632 47.57859455 88.68442945 46.3046875 87.40234375 C43.19777333 84.273487 40.09721325 81.13845866 37 78 C32.74580254 79.64097822 29.95203625 82.83041378 26.84375 86.03125 C26.25960327 86.62296997 25.67545654 87.21468994 25.0736084 87.82434082 C23.21084886 89.71148757 21.3546763 91.60491052 19.5 93.5 C17.05786088 95.99535305 14.609185 98.48401362 12.15625 100.96875 C11.59885132 101.54274536 11.04145264 102.11674072 10.46716309 102.70812988 C6.00112665 107.23011544 3.04566846 109.28416401 -3.3125 109.5 C-8.44535788 109.41765469 -11.01120206 108.23609776 -14.66015625 104.703125 C-17.41247007 101.20455699 -18.36357959 98.25933371 -18.5625 93.8125 C-18.62566406 92.93207031 -18.68882812 92.05164063 -18.75390625 91.14453125 C-16.40443625 81.34492841 -5.55397642 73.31968627 1.4375 66.4375 C2.56231768 65.32273837 3.68667012 64.20750711 4.81054688 63.09179688 C7.53503959 60.38909538 10.26572019 57.69279814 13 55 C9.37420499 50.56777817 5.52405821 46.45048036 1.453125 42.42578125 C0.95292847 41.93109344 0.45273193 41.43640564 -0.06262207 40.92672729 C-2.15522412 38.86181634 -4.25143546 36.80065561 -6.35205078 34.74389648 C-7.90056482 33.22559155 -9.44278979 31.70111623 -10.984375 30.17578125 C-11.89928711 29.27770752 -12.81419922 28.37963379 -13.75683594 27.4543457 C-18.10818019 22.69334617 -18.44677269 18.99383041 -18.3125 12.69140625 C-17.7065934 7.47303565 -15.084415 4.93654023 -11.25 1.625 C-7.40423199 -0.297884 -4.17961205 -0.8153549 0 0 Z " fill="#AF2727" transform="translate(366,347)"/>
<path d="M0 0 C0 0.33 0 0.66 0 1 C-1.20011719 1.24492187 -2.40023437 1.48984375 -3.63671875 1.7421875 C-33.41018536 8.24343229 -59.07951253 24.28656211 -75.81835938 50.07763672 C-91.12563741 74.98042747 -97.3943115 104.39690654 -91.03515625 133.17578125 C-86.18267117 151.10250916 -78.71039949 166.54430539 -67 181 C-66.46117187 181.70382812 -65.92234375 182.40765625 -65.3671875 183.1328125 C-49.97691182 202.23531548 -25.2912615 212.85777343 -2 218 C-2 218.66 -2 219.32 -2 220 C-30.5928593 220.63351978 -30.5928593 220.63351978 -43 217 C-44.65515625 216.52433594 -44.65515625 216.52433594 -46.34375 216.0390625 C-61.33831064 211.18990413 -75.33983253 203.59650331 -87 193 C-87.67675781 192.46375 -88.35351562 191.9275 -89.05078125 191.375 C-109.24119172 175.19030223 -121.74350898 147.1074048 -125 122 C-125.23756992 117.64077524 -125.23648055 113.30192453 -125.1875 108.9375 C-125.18685547 107.81150391 -125.18621094 106.68550781 -125.18554688 105.52539062 C-125.1409337 97.2818674 -125.1409337 97.2818674 -124 95 C-123.9175 93.80375 -123.835 92.6075 -123.75 91.375 C-121.2811177 68.3443815 -107.65500102 47.26432741 -92 31 C-91.14148438 30.02933594 -91.14148438 30.02933594 -90.265625 29.0390625 C-69.21706238 5.92904271 -30.43970641 -5.85197456 0 0 Z " fill="#C42E2E" transform="translate(417,292)"/>
<path d="M0 0 C0.920398 -0.00638882 1.840796 -0.01277764 2.78908485 -0.01936007 C5.86861825 -0.03460257 8.94686362 -0.01415331 12.02635193 0.00622559 C14.23584927 0.00272421 16.44534408 -0.00293456 18.65483093 -0.0105896 C24.65272125 -0.02484375 30.65015347 -0.00776995 36.648 0.01569557 C42.92238529 0.03579149 49.19675133 0.02992571 55.47116089 0.02758789 C66.00704671 0.02764147 76.54277304 0.04728026 87.07859802 0.07946777 C97.91653441 0.11256591 108.75428399 0.12672452 119.5922699 0.1204834 C132.65772636 0.11299656 145.72309622 0.12036816 158.78854179 0.14213562 C163.77767522 0.15031614 168.76676748 0.15301797 173.75590706 0.15144348 C179.62874742 0.15056546 185.50136414 0.16475868 191.37414551 0.19067001 C193.5312536 0.19784064 195.68838546 0.19991115 197.84550285 0.19655228 C200.78640583 0.192846 203.72665305 0.20755563 206.66748047 0.22705078 C207.95269013 0.21905889 207.95269013 0.21905889 209.26386362 0.21090555 C214.36020075 0.26932907 217.98774111 0.83895266 221.77024841 4.62145996 C222.35670457 11.77622508 222.35670457 11.77622508 220.31300354 14.72172642 C216.54537295 17.53658426 213.24995658 17.17317534 208.66038513 17.12266541 C207.72873976 17.1281998 206.79709438 17.1337342 205.83721733 17.1394363 C202.70785415 17.15307589 199.57928394 17.13805541 196.44993591 17.12316895 C194.20955567 17.12695091 191.96917776 17.13244993 189.72880554 17.13954163 C183.63795998 17.15352939 177.54739585 17.142303 171.45656586 17.12583041 C165.0896074 17.11200385 158.72266568 17.11843726 152.35569763 17.1219635 C141.66244838 17.12466752 130.96932263 17.11126091 120.27610779 17.0880127 C109.2721592 17.06409158 98.26835896 17.05700828 87.26438904 17.06750488 C74.00673199 17.08012859 60.74916101 17.07762587 47.49150085 17.06184578 C42.42617694 17.05607948 37.36090267 17.05617372 32.295578 17.06091118 C26.3333152 17.06567511 20.37125834 17.05560335 14.40903473 17.03395653 C12.21764063 17.02838054 10.02622677 17.02793076 7.83483124 17.03290939 C4.84969432 17.03884199 1.86519139 17.02639579 -1.11988831 17.00914001 C-2.42902286 17.01815508 -2.42902286 17.01815508 -3.76460457 17.02735227 C-9.61404538 16.96561885 -9.61404538 16.96561885 -12.74784851 15.21392918 C-14.47078345 13.36244449 -14.97673293 12.23750596 -15.35475159 9.74645996 C-15.48107971 9.08903809 -15.60740784 8.43161621 -15.73756409 7.75427246 C-15.04838865 4.85973563 -13.3887443 3.51701365 -11.11377156 1.70105267 C-7.59023005 -0.31802875 -3.96941727 -0.05814413 0 0 Z " fill="#BABABF" transform="translate(48.22975158691406,336.3785400390625)"/>
<path d="M0 0 C0.88178832 -0.00538554 1.76357664 -0.01077108 2.67208582 -0.01631981 C5.63859162 -0.03067286 8.60465581 -0.0234776 11.57118225 -0.01637268 C13.69319011 -0.02207241 15.8151949 -0.02903512 17.93719482 -0.03717041 C23.70987289 -0.05516088 29.48239944 -0.05392237 35.25509715 -0.04822803 C40.06896268 -0.04514465 44.88279875 -0.05121912 49.6966601 -0.05726677 C61.05036673 -0.07132975 72.40399815 -0.06973598 83.75770569 -0.05836487 C95.48263147 -0.04688168 107.20732857 -0.0609588 118.93222421 -0.08776134 C128.98833136 -0.10989102 139.04436658 -0.11656189 149.10049635 -0.11068493 C155.11119119 -0.10730764 161.12173942 -0.10978162 167.13241386 -0.12693596 C172.78362546 -0.14235946 178.43449732 -0.13850061 184.08569527 -0.11963081 C186.16260333 -0.11593218 188.23953632 -0.11909026 190.31642151 -0.1295166 C193.14632114 -0.14264108 195.97508187 -0.1312551 198.80493164 -0.11352539 C199.63167875 -0.1231304 200.45842585 -0.1327354 201.3102259 -0.14263147 C204.88615668 -0.09636391 207.03749053 0.07827405 209.97602177 2.20025539 C212.16510942 5.41412815 212.008055 7.59299854 211.46595764 11.38768005 C209.9756012 13.57468414 209.9756012 13.57468414 207.46595764 15.38768005 C204.45879226 15.78040323 201.81844765 15.92809296 198.81166077 15.89561462 C197.48769665 15.90497457 197.48769665 15.90497457 196.13698578 15.9145236 C193.17345628 15.93050401 190.21074354 15.91782958 187.24720764 15.90525818 C185.12505106 15.91067705 183.00289823 15.91779838 180.88075256 15.92649841 C175.11221629 15.94476256 169.34396558 15.93765137 163.57542419 15.92498207 C157.54478676 15.91487046 151.51417414 15.92424263 145.48353577 15.93052673 C135.3552358 15.93780849 125.22705242 15.92820152 115.09877014 15.90916443 C103.38119921 15.88739476 91.66390665 15.89444575 79.94634247 15.91647005 C69.89445357 15.93460894 59.84264857 15.93718975 49.7907486 15.92671537 C43.78343135 15.92047215 37.77624504 15.91966763 31.76893616 15.93286133 C26.12180011 15.94439715 20.47502374 15.93643537 14.82792664 15.9132843 C12.75263568 15.9079851 10.67731457 15.90953157 8.60203552 15.91833496 C5.77436344 15.92922613 2.94785213 15.91560471 0.12025452 15.89561462 C-1.11884296 15.90899895 -1.11884296 15.90899895 -2.38297272 15.92265368 C-6.02297218 15.87255702 -8.10901971 15.70844772 -11.05760193 13.48313141 C-12.75553681 11.07332207 -12.95194212 10.19101313 -12.47154236 7.32518005 C-12.3774408 6.65357849 -12.28333923 5.98197693 -12.18638611 5.2900238 C-10.16602278 -0.60169439 -5.3923735 -0.03909442 0 0 Z " fill="#B9B9BE" transform="translate(45.53404235839844,385.61231994628906)"/>
<path d="M0 0 C0.65819623 -0.00779995 1.31639245 -0.01559991 1.99453402 -0.02363622 C4.19285382 -0.04352846 6.38943694 -0.02780524 8.58776855 -0.01205444 C10.16659046 -0.0188319 11.74540445 -0.02773576 13.32420349 -0.03860474 C17.60736172 -0.0613898 21.88991747 -0.05256527 26.17308617 -0.03670931 C30.65642286 -0.02404611 35.13970814 -0.03579158 39.62304688 -0.04364014 C47.15190895 -0.05273549 54.68052575 -0.04075185 62.20935059 -0.01693726 C70.91245381 0.0102739 79.61497137 0.00145965 88.3180604 -0.02606928 C95.79168919 -0.04876266 103.26514173 -0.05195934 110.73879385 -0.03887594 C115.20190117 -0.03108265 119.66473326 -0.03003636 124.12782288 -0.04655838 C128.32398949 -0.06100733 132.51940141 -0.05097434 136.71548653 -0.0220871 C138.2549826 -0.01547845 139.79454224 -0.01737029 141.33401299 -0.02840042 C143.43699137 -0.0420783 145.53755611 -0.02491952 147.64038086 0 C149.40463032 0.00282769 149.40463032 0.00282769 151.20452118 0.00571251 C155.27829192 0.82840567 156.80310585 2.38734758 159.32019043 5.63491821 C159.32019043 9.26252991 159.11214825 11.55497573 156.94519043 14.50991821 C153.43987954 16.93667191 150.12171692 16.76893332 146.00151062 16.78881836 C145.35797947 16.79320061 144.71444831 16.79758287 144.05141622 16.80209792 C141.89124878 16.81547126 139.73112213 16.82166142 137.57092285 16.82778931 C136.02358313 16.83569134 134.47624525 16.84396036 132.9289093 16.85256958 C127.84451046 16.87877485 122.76010345 16.8940943 117.67565918 16.90835571 C115.92525032 16.91371574 114.17484151 16.91909325 112.42443275 16.92448807 C105.14387698 16.94611332 97.86332341 16.96485056 90.58274364 16.97611046 C80.14845464 16.99235416 69.71453774 17.02554603 59.28038901 17.08251131 C51.94356504 17.12120174 44.60684063 17.14074199 37.26991731 17.14603102 C32.88771933 17.14968532 28.50591836 17.16171483 24.1238308 17.19413376 C20.00083157 17.22419936 15.87846989 17.23053191 11.75538445 17.21875 C10.24368667 17.21852915 8.73195942 17.22684426 7.22036362 17.24440384 C-5.62245477 17.38545246 -5.62245477 17.38545246 -9.58293152 14.28594971 C-11.67980957 11.63491821 -11.67980957 11.63491821 -12.36730957 8.63491821 C-10.83257328 1.93788711 -6.42371829 0.01029576 0 0 Z " fill="#BABABF" transform="translate(44.6798095703125,433.3650817871094)"/>
<path d="M0 0 C1.07245972 -0.0038269 2.14491943 -0.00765381 3.24987793 -0.01159668 C5.51604146 -0.01431716 7.78223631 -0.00694653 10.04833984 0.00976562 C13.51861528 0.03117206 16.98682027 0.00996725 20.45703125 -0.015625 C22.65885874 -0.01298175 24.86068494 -0.00785683 27.0625 0 C28.10112183 -0.00809692 29.13974365 -0.01619385 30.20983887 -0.02453613 C37.3855661 0.06894993 37.3855661 0.06894993 40.65820312 2.41210938 C42.2980644 4.94304747 42.95737615 6.50242213 43.03125 9.53125 C41.35129426 13.33325509 39.84610498 14.99597107 36.03125 16.53125 C33.87550354 16.79194641 33.87550354 16.79194641 31.52563477 16.8059082 C30.64114151 16.81544022 29.75664825 16.82497223 28.84535217 16.83479309 C27.89736252 16.83388168 26.94937286 16.83297028 25.97265625 16.83203125 C24.99135239 16.83631638 24.01004852 16.8406015 22.99900818 16.84501648 C20.92537202 16.85075486 18.85171573 16.85126367 16.77807617 16.84692383 C13.6088622 16.84376506 10.44058289 16.86722534 7.27148438 16.89257812 C5.25520951 16.89485131 3.23893214 16.89555453 1.22265625 16.89453125 C-0.19629189 16.90834587 -0.19629189 16.90834587 -1.64390564 16.92243958 C-6.54113697 16.8880747 -10.03458347 16.80498335 -13.96875 13.53125 C-15.51461876 10.43951248 -15.26234521 7.93695448 -14.96875 4.53125 C-11.5643133 -1.06638164 -5.83877038 -0.04551809 0 0 Z " fill="#BABABF" transform="translate(234.96875,433.46875)"/>
</svg>
